<svg width="375" height="812" viewBox="0 0 375 812" fill="none" xmlns="http://www.w3.org/2000/svg">
<g clip-path="url(#clip0_237_1548)">
<rect width="375" height="812" fill="#567DF4"/>
<path d="M408.298 224.2C470.209 224.2 520.398 174.011 520.398 112.1C520.398 50.1889 470.209 0 408.298 0C346.387 0 296.198 50.1889 296.198 112.1C296.198 174.011 346.387 224.2 408.298 224.2Z" stroke="#192342" stroke-width="2" stroke-miterlimit="10"/>
<path d="M360.153 193.204C362.481 178.978 352.835 165.559 338.61 163.231C324.384 160.903 310.964 170.548 308.636 184.774C306.308 199 315.954 212.419 330.179 214.747C344.405 217.075 357.825 207.43 360.153 193.204Z" stroke="#F3F6FF" stroke-miterlimit="10"/>
<path d="M339.762 174.932C343.037 160.895 334.313 146.861 320.276 143.586C306.239 140.311 292.205 149.035 288.93 163.072C285.655 177.109 294.379 191.143 308.416 194.418C322.453 197.693 336.487 188.969 339.762 174.932Z" fill="#F3F6FF" stroke="#F3F6FF" stroke-miterlimit="10"/>
<path d="M120.6 754.7C129.105 754.7 136 747.805 136 739.3C136 730.795 129.105 723.9 120.6 723.9C112.095 723.9 105.2 730.795 105.2 739.3C105.2 747.805 112.095 754.7 120.6 754.7Z" fill="#F3F6FF"/>
<path d="M-36 653.7C-36 589.7 15.9 537.9 79.8 537.9C143.8 537.9 195.6 589.8 195.6 653.7V987.3" stroke="#192342" stroke-miterlimit="10"/>
<path d="M-19.1 653.7C-19.1 599.1 25.3 554.7 79.9 554.7C134.5 554.7 178.9 599.1 178.9 653.7V987.3" stroke="#192342" stroke-miterlimit="10"/>
<path d="M-2.20007 653.7C-2.20007 608.4 34.5999 571.6 79.8999 571.6C125.2 571.6 162 608.4 162 653.7V987.3" stroke="#192342" stroke-miterlimit="10"/>
<path d="M14.7 987.3V653.7C14.7 617.8 43.9 588.5 79.9 588.5C115.9 588.5 145.1 617.7 145.1 653.7V987.3" stroke="#192342" stroke-miterlimit="10"/>
<path d="M31.6 987.3V653.7C31.6 627.1 53.3 605.4 79.9 605.4C106.5 605.4 128.2 627.1 128.2 653.7V987.3" stroke="#192342" stroke-miterlimit="10"/>
<path d="M113.9 541.1C113.9 544.6 111.1 547.5 107.5 547.5C103.9 547.5 101.1 544.7 101.1 541.1C101.1 537.6 103.9 534.7 107.5 534.7C111.1 534.7 113.9 537.6 113.9 541.1Z" fill="#F3F6FF"/>
<path d="M119.146 439.424C119.578 439.424 119.957 439.368 120.282 439.256C120.613 439.144 120.887 438.987 121.106 438.784C121.33 438.576 121.498 438.331 121.61 438.048C121.722 437.76 121.778 437.443 121.778 437.096C121.778 436.397 121.559 435.848 121.122 435.448C120.69 435.048 120.031 434.848 119.146 434.848H117.37V439.424H119.146ZM119.146 433.512C119.882 433.512 120.522 433.597 121.066 433.768C121.61 433.939 122.061 434.181 122.418 434.496C122.775 434.805 123.039 435.181 123.21 435.624C123.386 436.067 123.474 436.557 123.474 437.096C123.474 437.635 123.381 438.131 123.194 438.584C123.007 439.032 122.733 439.419 122.37 439.744C122.007 440.069 121.554 440.323 121.01 440.504C120.471 440.68 119.85 440.768 119.146 440.768H117.37V445H115.666V433.512H119.146ZM129.152 441.392C128.517 441.413 127.978 441.464 127.536 441.544C127.093 441.619 126.733 441.72 126.456 441.848C126.178 441.976 125.978 442.128 125.856 442.304C125.733 442.475 125.672 442.667 125.672 442.88C125.672 443.083 125.704 443.259 125.768 443.408C125.837 443.552 125.928 443.672 126.039 443.768C126.157 443.859 126.293 443.925 126.448 443.968C126.602 444.011 126.77 444.032 126.952 444.032C127.192 444.032 127.41 444.008 127.608 443.96C127.81 443.912 128 443.845 128.176 443.76C128.352 443.669 128.52 443.56 128.68 443.432C128.84 443.304 128.997 443.157 129.152 442.992V441.392ZM124.576 438.008C125.029 437.576 125.52 437.253 126.048 437.04C126.581 436.827 127.165 436.72 127.799 436.72C128.264 436.72 128.674 436.797 129.032 436.952C129.389 437.101 129.69 437.312 129.936 437.584C130.181 437.856 130.365 438.181 130.488 438.56C130.616 438.939 130.68 439.357 130.68 439.816V445H129.984C129.829 445 129.712 444.976 129.632 444.928C129.552 444.875 129.488 444.779 129.44 444.64L129.272 443.928C129.064 444.12 128.858 444.291 128.656 444.44C128.453 444.584 128.24 444.709 128.016 444.816C127.797 444.917 127.562 444.995 127.312 445.048C127.061 445.101 126.784 445.128 126.48 445.128C126.16 445.128 125.858 445.085 125.576 445C125.298 444.909 125.056 444.773 124.848 444.592C124.64 444.411 124.474 444.184 124.352 443.912C124.234 443.64 124.176 443.323 124.176 442.96C124.176 442.64 124.261 442.333 124.432 442.04C124.608 441.741 124.89 441.475 125.28 441.24C125.674 441.005 126.186 440.813 126.816 440.664C127.45 440.515 128.229 440.429 129.152 440.408V439.816C129.152 439.203 129.021 438.744 128.76 438.44C128.498 438.136 128.114 437.984 127.608 437.984C127.266 437.984 126.978 438.027 126.744 438.112C126.514 438.197 126.314 438.293 126.144 438.4C125.978 438.501 125.832 438.595 125.704 438.68C125.581 438.765 125.453 438.808 125.32 438.808C125.213 438.808 125.12 438.779 125.04 438.72C124.965 438.661 124.904 438.592 124.856 438.512L124.576 438.008ZM134.24 438.432C134.501 437.899 134.816 437.48 135.184 437.176C135.552 436.872 135.995 436.72 136.512 436.72C136.688 436.72 136.853 436.741 137.008 436.784C137.168 436.821 137.307 436.88 137.424 436.96L137.32 438.136C137.283 438.28 137.195 438.352 137.056 438.352C136.981 438.352 136.869 438.339 136.72 438.312C136.571 438.28 136.411 438.264 136.24 438.264C135.989 438.264 135.768 438.301 135.576 438.376C135.384 438.445 135.211 438.552 135.056 438.696C134.907 438.835 134.773 439.008 134.656 439.216C134.539 439.419 134.429 439.651 134.328 439.912V445H132.768V436.872H133.664C133.835 436.872 133.949 436.904 134.008 436.968C134.072 437.027 134.117 437.133 134.144 437.288L134.24 438.432ZM140.187 433.192V440.096H140.555C140.667 440.096 140.761 440.08 140.835 440.048C140.91 440.016 140.987 439.952 141.067 439.856L143.499 437.176C143.574 437.075 143.657 437 143.747 436.952C143.838 436.899 143.953 436.872 144.091 436.872H145.515L142.643 440.016C142.489 440.213 142.323 440.365 142.147 440.472C142.249 440.541 142.337 440.621 142.411 440.712C142.491 440.803 142.569 440.901 142.643 441.008L145.699 445H144.299C144.171 445 144.059 444.979 143.963 444.936C143.873 444.893 143.79 444.816 143.715 444.704L141.203 441.44C141.123 441.317 141.043 441.24 140.963 441.208C140.883 441.171 140.763 441.152 140.603 441.152H140.187V445H138.627V433.192H140.187ZM148.494 436.872V445H146.934V436.872H148.494ZM148.79 434.36C148.79 434.504 148.76 434.643 148.702 434.776C148.643 434.904 148.563 435.019 148.462 435.12C148.366 435.216 148.251 435.293 148.118 435.352C147.984 435.405 147.846 435.432 147.702 435.432C147.558 435.432 147.422 435.405 147.294 435.352C147.166 435.293 147.051 435.216 146.95 435.12C146.854 435.019 146.776 434.904 146.718 434.776C146.664 434.643 146.638 434.504 146.638 434.36C146.638 434.211 146.664 434.072 146.718 433.944C146.776 433.811 146.854 433.696 146.95 433.6C147.051 433.499 147.166 433.421 147.294 433.368C147.422 433.309 147.558 433.28 147.702 433.28C147.846 433.28 147.984 433.309 148.118 433.368C148.251 433.421 148.366 433.499 148.462 433.6C148.563 433.696 148.643 433.811 148.702 433.944C148.76 434.072 148.79 434.211 148.79 434.36ZM152.216 438C152.392 437.813 152.576 437.643 152.768 437.488C152.96 437.333 153.163 437.203 153.376 437.096C153.595 436.984 153.827 436.899 154.072 436.84C154.323 436.776 154.59 436.744 154.872 436.744C155.32 436.744 155.712 436.819 156.048 436.968C156.39 437.117 156.675 437.328 156.904 437.6C157.134 437.867 157.307 438.189 157.424 438.568C157.542 438.947 157.6 439.365 157.6 439.824V445H156.032V439.824C156.032 439.243 155.899 438.792 155.632 438.472C155.366 438.147 154.958 437.984 154.408 437.984C154.008 437.984 153.632 438.08 153.28 438.272C152.934 438.459 152.611 438.715 152.312 439.04V445H150.752V436.872H151.688C151.907 436.872 152.043 436.976 152.096 437.184L152.216 438ZM162.561 440.944C162.839 440.944 163.081 440.907 163.289 440.832C163.503 440.757 163.679 440.653 163.817 440.52C163.961 440.381 164.068 440.216 164.137 440.024C164.212 439.832 164.249 439.621 164.249 439.392C164.249 438.923 164.105 438.549 163.817 438.272C163.535 437.989 163.116 437.848 162.561 437.848C162.012 437.848 161.593 437.989 161.305 438.272C161.023 438.549 160.881 438.923 160.881 439.392C160.881 439.621 160.916 439.832 160.985 440.024C161.06 440.211 161.167 440.373 161.305 440.512C161.449 440.645 161.625 440.752 161.833 440.832C162.047 440.907 162.289 440.944 162.561 440.944ZM165.049 445.424C165.049 445.232 164.996 445.08 164.889 444.968C164.783 444.851 164.636 444.76 164.449 444.696C164.268 444.627 164.055 444.579 163.809 444.552C163.564 444.52 163.305 444.496 163.033 444.48C162.767 444.464 162.492 444.451 162.209 444.44C161.927 444.424 161.655 444.397 161.393 444.36C161.116 444.499 160.887 444.667 160.705 444.864C160.529 445.061 160.441 445.293 160.441 445.56C160.441 445.731 160.484 445.891 160.569 446.04C160.66 446.189 160.796 446.317 160.977 446.424C161.164 446.536 161.396 446.621 161.673 446.68C161.956 446.744 162.292 446.776 162.681 446.776C163.065 446.776 163.404 446.741 163.697 446.672C163.991 446.608 164.236 446.515 164.433 446.392C164.636 446.275 164.788 446.133 164.889 445.968C164.996 445.803 165.049 445.621 165.049 445.424ZM166.633 437.176V437.76C166.633 437.952 166.513 438.072 166.273 438.12L165.401 438.248C165.476 438.413 165.535 438.589 165.577 438.776C165.62 438.957 165.641 439.149 165.641 439.352C165.641 439.752 165.564 440.115 165.409 440.44C165.255 440.76 165.041 441.035 164.769 441.264C164.497 441.493 164.172 441.669 163.793 441.792C163.42 441.915 163.009 441.976 162.561 441.976C162.193 441.976 161.849 441.936 161.529 441.856C161.369 441.952 161.247 442.059 161.161 442.176C161.081 442.288 161.041 442.4 161.041 442.512C161.041 442.699 161.119 442.837 161.273 442.928C161.433 443.019 161.639 443.085 161.889 443.128C162.145 443.165 162.436 443.189 162.761 443.2C163.092 443.211 163.425 443.229 163.761 443.256C164.103 443.277 164.436 443.32 164.761 443.384C165.092 443.443 165.383 443.541 165.633 443.68C165.889 443.813 166.095 444 166.249 444.24C166.409 444.475 166.489 444.781 166.489 445.16C166.489 445.512 166.401 445.853 166.225 446.184C166.055 446.515 165.804 446.808 165.473 447.064C165.143 447.32 164.74 447.525 164.265 447.68C163.791 447.835 163.252 447.912 162.649 447.912C162.047 447.912 161.521 447.853 161.073 447.736C160.631 447.619 160.26 447.461 159.961 447.264C159.668 447.067 159.447 446.837 159.297 446.576C159.153 446.315 159.081 446.043 159.081 445.76C159.081 445.365 159.204 445.032 159.449 444.76C159.695 444.483 160.033 444.267 160.465 444.112C160.231 444.005 160.044 443.861 159.905 443.68C159.767 443.493 159.697 443.248 159.697 442.944C159.697 442.827 159.719 442.707 159.761 442.584C159.804 442.456 159.868 442.331 159.953 442.208C160.044 442.08 160.153 441.96 160.281 441.848C160.415 441.736 160.567 441.635 160.737 441.544C160.337 441.32 160.023 441.024 159.793 440.656C159.564 440.283 159.449 439.848 159.449 439.352C159.449 438.952 159.527 438.592 159.681 438.272C159.836 437.952 160.049 437.677 160.321 437.448C160.599 437.219 160.927 437.043 161.305 436.92C161.689 436.797 162.108 436.736 162.561 436.736C163.265 436.736 163.871 436.883 164.377 437.176H166.633ZM176.904 438.272C176.861 438.341 176.816 438.392 176.768 438.424C176.72 438.451 176.658 438.464 176.584 438.464C176.498 438.464 176.402 438.435 176.296 438.376C176.194 438.317 176.069 438.253 175.92 438.184C175.776 438.115 175.605 438.051 175.408 437.992C175.21 437.933 174.976 437.904 174.704 437.904C174.48 437.904 174.274 437.933 174.088 437.992C173.906 438.045 173.752 438.123 173.624 438.224C173.496 438.32 173.397 438.437 173.328 438.576C173.258 438.709 173.224 438.853 173.224 439.008C173.224 439.211 173.282 439.379 173.4 439.512C173.522 439.645 173.68 439.76 173.872 439.856C174.069 439.952 174.29 440.04 174.536 440.12C174.786 440.195 175.04 440.275 175.296 440.36C175.557 440.445 175.81 440.544 176.056 440.656C176.306 440.763 176.528 440.899 176.72 441.064C176.917 441.224 177.074 441.419 177.192 441.648C177.314 441.877 177.376 442.157 177.376 442.488C177.376 442.867 177.306 443.219 177.168 443.544C177.034 443.864 176.834 444.141 176.568 444.376C176.306 444.611 175.981 444.795 175.592 444.928C175.202 445.061 174.757 445.128 174.256 445.128C173.696 445.128 173.178 445.035 172.704 444.848C172.229 444.661 171.832 444.424 171.512 444.136L171.88 443.536C171.922 443.461 171.976 443.405 172.04 443.368C172.104 443.325 172.189 443.304 172.296 443.304C172.397 443.304 172.501 443.341 172.608 443.416C172.714 443.491 172.842 443.573 172.992 443.664C173.141 443.749 173.322 443.829 173.536 443.904C173.749 443.973 174.016 444.008 174.336 444.008C174.602 444.008 174.834 443.976 175.032 443.912C175.229 443.843 175.392 443.752 175.52 443.64C175.653 443.523 175.752 443.389 175.816 443.24C175.88 443.091 175.912 442.933 175.912 442.768C175.912 442.555 175.85 442.379 175.728 442.24C175.61 442.096 175.453 441.973 175.256 441.872C175.064 441.771 174.842 441.683 174.592 441.608C174.341 441.533 174.085 441.453 173.824 441.368C173.562 441.283 173.306 441.184 173.056 441.072C172.805 440.96 172.581 440.819 172.384 440.648C172.192 440.477 172.034 440.269 171.912 440.024C171.794 439.779 171.736 439.48 171.736 439.128C171.736 438.813 171.8 438.512 171.928 438.224C172.061 437.936 172.25 437.683 172.496 437.464C172.746 437.245 173.053 437.072 173.416 436.944C173.784 436.811 174.202 436.744 174.672 436.744C175.21 436.744 175.696 436.829 176.128 437C176.565 437.171 176.938 437.405 177.248 437.704L176.904 438.272ZM180.625 443C180.881 443.336 181.155 443.571 181.449 443.704C181.747 443.837 182.081 443.904 182.449 443.904C183.163 443.904 183.715 443.648 184.105 443.136C184.499 442.619 184.697 441.867 184.697 440.88C184.697 440.363 184.651 439.923 184.561 439.56C184.475 439.192 184.347 438.893 184.177 438.664C184.011 438.429 183.806 438.259 183.561 438.152C183.315 438.04 183.038 437.984 182.729 437.984C182.275 437.984 181.881 438.085 181.545 438.288C181.214 438.491 180.907 438.779 180.625 439.152V443ZM180.545 438.088C180.715 437.885 180.897 437.701 181.089 437.536C181.286 437.365 181.497 437.221 181.721 437.104C181.945 436.981 182.182 436.888 182.433 436.824C182.689 436.755 182.961 436.72 183.249 436.72C183.713 436.72 184.131 436.811 184.505 436.992C184.883 437.173 185.206 437.44 185.473 437.792C185.739 438.144 185.945 438.579 186.089 439.096C186.238 439.613 186.313 440.208 186.313 440.88C186.313 441.483 186.23 442.043 186.065 442.56C185.905 443.072 185.673 443.517 185.369 443.896C185.07 444.275 184.702 444.573 184.265 444.792C183.833 445.005 183.345 445.112 182.801 445.112C182.315 445.112 181.899 445.032 181.553 444.872C181.206 444.712 180.897 444.488 180.625 444.2V447.728H179.065V436.872H180.001C180.219 436.872 180.355 436.976 180.409 437.184L180.545 438.088ZM191.529 436.744C192.126 436.744 192.665 436.843 193.145 437.04C193.63 437.232 194.041 437.512 194.377 437.88C194.718 438.243 194.979 438.683 195.161 439.2C195.342 439.712 195.433 440.288 195.433 440.928C195.433 441.568 195.342 442.147 195.161 442.664C194.979 443.181 194.718 443.621 194.377 443.984C194.041 444.347 193.63 444.627 193.145 444.824C192.665 445.016 192.126 445.112 191.529 445.112C190.926 445.112 190.382 445.016 189.897 444.824C189.417 444.627 189.006 444.347 188.665 443.984C188.323 443.621 188.059 443.181 187.873 442.664C187.691 442.147 187.601 441.568 187.601 440.928C187.601 440.288 187.691 439.712 187.873 439.2C188.059 438.683 188.323 438.243 188.665 437.88C189.006 437.512 189.417 437.232 189.897 437.04C190.382 436.843 190.926 436.744 191.529 436.744ZM191.529 443.896C192.297 443.896 192.87 443.637 193.249 443.12C193.627 442.603 193.817 441.875 193.817 440.936C193.817 439.997 193.627 439.269 193.249 438.752C192.87 438.229 192.297 437.968 191.529 437.968C190.75 437.968 190.169 438.229 189.785 438.752C189.406 439.269 189.217 439.997 189.217 440.936C189.217 441.875 189.406 442.603 189.785 443.12C190.169 443.637 190.75 443.896 191.529 443.896ZM199.562 445.128C198.906 445.128 198.399 444.944 198.042 444.576C197.69 444.208 197.514 443.683 197.514 443V438.136H196.57C196.479 438.136 196.402 438.109 196.338 438.056C196.279 437.997 196.25 437.912 196.25 437.8V437.168L197.57 436.984L197.922 434.56C197.943 434.469 197.983 434.4 198.042 434.352C198.106 434.299 198.186 434.272 198.282 434.272H199.074V437H201.378V438.136H199.074V442.896C199.074 443.216 199.151 443.456 199.306 443.616C199.466 443.771 199.669 443.848 199.914 443.848C200.058 443.848 200.181 443.829 200.282 443.792C200.389 443.755 200.479 443.715 200.554 443.672C200.629 443.624 200.693 443.581 200.746 443.544C200.799 443.507 200.847 443.488 200.89 443.488C200.943 443.488 200.983 443.501 201.01 443.528C201.042 443.549 201.074 443.587 201.106 443.64L201.57 444.392C201.314 444.627 201.01 444.808 200.658 444.936C200.306 445.064 199.941 445.128 199.562 445.128ZM208.494 436.872V445H206.934V436.872H208.494ZM208.79 434.36C208.79 434.504 208.76 434.643 208.702 434.776C208.643 434.904 208.563 435.019 208.462 435.12C208.366 435.216 208.251 435.293 208.118 435.352C207.984 435.405 207.846 435.432 207.702 435.432C207.558 435.432 207.422 435.405 207.294 435.352C207.166 435.293 207.051 435.216 206.95 435.12C206.854 435.019 206.776 434.904 206.718 434.776C206.664 434.643 206.638 434.504 206.638 434.36C206.638 434.211 206.664 434.072 206.718 433.944C206.776 433.811 206.854 433.696 206.95 433.6C207.051 433.499 207.166 433.421 207.294 433.368C207.422 433.309 207.558 433.28 207.702 433.28C207.846 433.28 207.984 433.309 208.118 433.368C208.251 433.421 208.366 433.499 208.462 433.6C208.563 433.696 208.643 433.811 208.702 433.944C208.76 434.072 208.79 434.211 208.79 434.36ZM215.544 438.272C215.502 438.341 215.456 438.392 215.408 438.424C215.36 438.451 215.299 438.464 215.224 438.464C215.139 438.464 215.043 438.435 214.936 438.376C214.835 438.317 214.71 438.253 214.56 438.184C214.416 438.115 214.246 438.051 214.048 437.992C213.851 437.933 213.616 437.904 213.344 437.904C213.12 437.904 212.915 437.933 212.728 437.992C212.547 438.045 212.392 438.123 212.264 438.224C212.136 438.32 212.038 438.437 211.968 438.576C211.899 438.709 211.864 438.853 211.864 439.008C211.864 439.211 211.923 439.379 212.04 439.512C212.163 439.645 212.32 439.76 212.512 439.856C212.71 439.952 212.931 440.04 213.176 440.12C213.427 440.195 213.68 440.275 213.936 440.36C214.198 440.445 214.451 440.544 214.696 440.656C214.947 440.763 215.168 440.899 215.36 441.064C215.558 441.224 215.715 441.419 215.832 441.648C215.955 441.877 216.016 442.157 216.016 442.488C216.016 442.867 215.947 443.219 215.808 443.544C215.675 443.864 215.475 444.141 215.208 444.376C214.947 444.611 214.622 444.795 214.232 444.928C213.843 445.061 213.398 445.128 212.896 445.128C212.336 445.128 211.819 445.035 211.344 444.848C210.87 444.661 210.472 444.424 210.152 444.136L210.52 443.536C210.563 443.461 210.616 443.405 210.68 443.368C210.744 443.325 210.83 443.304 210.936 443.304C211.038 443.304 211.142 443.341 211.248 443.416C211.355 443.491 211.483 443.573 211.632 443.664C211.782 443.749 211.963 443.829 212.176 443.904C212.39 443.973 212.656 444.008 212.976 444.008C213.243 444.008 213.475 443.976 213.672 443.912C213.87 443.843 214.032 443.752 214.16 443.64C214.294 443.523 214.392 443.389 214.456 443.24C214.52 443.091 214.552 442.933 214.552 442.768C214.552 442.555 214.491 442.379 214.368 442.24C214.251 442.096 214.094 441.973 213.896 441.872C213.704 441.771 213.483 441.683 213.232 441.608C212.982 441.533 212.726 441.453 212.464 441.368C212.203 441.283 211.947 441.184 211.696 441.072C211.446 440.96 211.222 440.819 211.024 440.648C210.832 440.477 210.675 440.269 210.552 440.024C210.435 439.779 210.376 439.48 210.376 439.128C210.376 438.813 210.44 438.512 210.568 438.224C210.702 437.936 210.891 437.683 211.136 437.464C211.387 437.245 211.694 437.072 212.056 436.944C212.424 436.811 212.843 436.744 213.312 436.744C213.851 436.744 214.336 436.829 214.768 437C215.206 437.171 215.579 437.405 215.888 437.704L215.544 438.272ZM223.312 443C223.568 443.336 223.846 443.571 224.144 443.704C224.443 443.837 224.768 443.904 225.12 443.904C225.846 443.904 226.403 443.645 226.792 443.128C227.187 442.611 227.384 441.829 227.384 440.784C227.384 439.819 227.211 439.112 226.864 438.664C226.518 438.211 226.027 437.984 225.392 437.984C224.944 437.984 224.555 438.085 224.224 438.288C223.899 438.491 223.595 438.779 223.312 439.152V443ZM223.312 437.992C223.648 437.619 224.03 437.317 224.456 437.088C224.883 436.859 225.368 436.744 225.912 436.744C226.387 436.744 226.814 436.837 227.192 437.024C227.576 437.205 227.902 437.469 228.168 437.816C228.435 438.157 228.64 438.573 228.784 439.064C228.928 439.555 229 440.109 229 440.728C229 441.384 228.918 441.981 228.752 442.52C228.592 443.059 228.36 443.52 228.056 443.904C227.758 444.288 227.392 444.587 226.96 444.8C226.528 445.008 226.043 445.112 225.504 445.112C225.243 445.112 225.003 445.085 224.784 445.032C224.566 444.984 224.363 444.912 224.176 444.816C223.995 444.72 223.827 444.603 223.672 444.464C223.518 444.325 223.371 444.168 223.232 443.992L223.16 444.672C223.118 444.891 222.984 445 222.76 445H221.752V433.192H223.312V437.992ZM234.201 436.744C234.798 436.744 235.337 436.843 235.817 437.04C236.302 437.232 236.713 437.512 237.049 437.88C237.39 438.243 237.651 438.683 237.833 439.2C238.014 439.712 238.105 440.288 238.105 440.928C238.105 441.568 238.014 442.147 237.833 442.664C237.651 443.181 237.39 443.621 237.049 443.984C236.713 444.347 236.302 444.627 235.817 444.824C235.337 445.016 234.798 445.112 234.201 445.112C233.598 445.112 233.054 445.016 232.569 444.824C232.089 444.627 231.678 444.347 231.337 443.984C230.995 443.621 230.731 443.181 230.545 442.664C230.363 442.147 230.273 441.568 230.273 440.928C230.273 440.288 230.363 439.712 230.545 439.2C230.731 438.683 230.995 438.243 231.337 437.88C231.678 437.512 232.089 437.232 232.569 437.04C233.054 436.843 233.598 436.744 234.201 436.744ZM234.201 443.896C234.969 443.896 235.542 443.637 235.921 443.12C236.299 442.603 236.489 441.875 236.489 440.936C236.489 439.997 236.299 439.269 235.921 438.752C235.542 438.229 234.969 437.968 234.201 437.968C233.422 437.968 232.841 438.229 232.457 438.752C232.078 439.269 231.889 439.997 231.889 440.936C231.889 441.875 232.078 442.603 232.457 443.12C232.841 443.637 233.422 443.896 234.201 443.896ZM243.31 436.744C243.907 436.744 244.446 436.843 244.926 437.04C245.411 437.232 245.822 437.512 246.158 437.88C246.499 438.243 246.761 438.683 246.942 439.2C247.123 439.712 247.214 440.288 247.214 440.928C247.214 441.568 247.123 442.147 246.942 442.664C246.761 443.181 246.499 443.621 246.158 443.984C245.822 444.347 245.411 444.627 244.926 444.824C244.446 445.016 243.907 445.112 243.31 445.112C242.707 445.112 242.163 445.016 241.678 444.824C241.198 444.627 240.787 444.347 240.446 443.984C240.105 443.621 239.841 443.181 239.654 442.664C239.473 442.147 239.382 441.568 239.382 440.928C239.382 440.288 239.473 439.712 239.654 439.2C239.841 438.683 240.105 438.243 240.446 437.88C240.787 437.512 241.198 437.232 241.678 437.04C242.163 436.843 242.707 436.744 243.31 436.744ZM243.31 443.896C244.078 443.896 244.651 443.637 245.03 443.12C245.409 442.603 245.598 441.875 245.598 440.936C245.598 439.997 245.409 439.269 245.03 438.752C244.651 438.229 244.078 437.968 243.31 437.968C242.531 437.968 241.95 438.229 241.566 438.752C241.187 439.269 240.998 439.997 240.998 440.936C240.998 441.875 241.187 442.603 241.566 443.12C241.95 443.637 242.531 443.896 243.31 443.896ZM250.515 433.192V440.096H250.883C250.995 440.096 251.089 440.08 251.163 440.048C251.238 440.016 251.315 439.952 251.395 439.856L253.827 437.176C253.902 437.075 253.985 437 254.075 436.952C254.166 436.899 254.281 436.872 254.419 436.872H255.843L252.971 440.016C252.817 440.213 252.651 440.365 252.475 440.472C252.577 440.541 252.665 440.621 252.739 440.712C252.819 440.803 252.897 440.901 252.971 441.008L256.027 445H254.627C254.499 445 254.387 444.979 254.291 444.936C254.201 444.893 254.118 444.816 254.043 444.704L251.531 441.44C251.451 441.317 251.371 441.24 251.291 441.208C251.211 441.171 251.091 441.152 250.931 441.152H250.515V445H248.955V433.192H250.515ZM262.121 440.032C262.121 439.723 262.075 439.437 261.985 439.176C261.899 438.915 261.771 438.688 261.601 438.496C261.43 438.304 261.222 438.155 260.977 438.048C260.731 437.941 260.449 437.888 260.129 437.888C259.473 437.888 258.955 438.077 258.577 438.456C258.203 438.835 257.966 439.36 257.865 440.032H262.121ZM263.409 443.84C263.217 444.064 262.995 444.259 262.745 444.424C262.494 444.584 262.227 444.715 261.945 444.816C261.662 444.917 261.369 444.992 261.065 445.04C260.766 445.088 260.47 445.112 260.177 445.112C259.617 445.112 259.097 445.019 258.617 444.832C258.142 444.64 257.729 444.363 257.377 444C257.03 443.632 256.758 443.179 256.561 442.64C256.369 442.096 256.273 441.472 256.273 440.768C256.273 440.203 256.361 439.677 256.537 439.192C256.713 438.701 256.963 438.275 257.289 437.912C257.619 437.549 258.022 437.264 258.497 437.056C258.971 436.848 259.505 436.744 260.097 436.744C260.593 436.744 261.049 436.827 261.465 436.992C261.886 437.152 262.249 437.387 262.553 437.696C262.857 438.005 263.094 438.387 263.265 438.84C263.441 439.293 263.529 439.811 263.529 440.392C263.529 440.632 263.502 440.795 263.449 440.88C263.395 440.96 263.297 441 263.153 441H257.825C257.841 441.485 257.91 441.909 258.033 442.272C258.155 442.629 258.323 442.928 258.537 443.168C258.755 443.408 259.014 443.587 259.313 443.704C259.611 443.821 259.945 443.88 260.313 443.88C260.659 443.88 260.958 443.84 261.209 443.76C261.465 443.68 261.683 443.595 261.865 443.504C262.051 443.408 262.206 443.32 262.329 443.24C262.457 443.16 262.569 443.12 262.665 443.12C262.793 443.12 262.891 443.168 262.961 443.264L263.409 443.84ZM270.445 438.84C270.189 438.504 269.912 438.269 269.613 438.136C269.32 438.003 268.989 437.936 268.621 437.936C267.907 437.936 267.352 438.195 266.957 438.712C266.568 439.224 266.373 439.973 266.373 440.96C266.373 441.477 266.416 441.92 266.501 442.288C266.592 442.651 266.72 442.949 266.885 443.184C267.056 443.413 267.264 443.584 267.509 443.696C267.755 443.803 268.032 443.856 268.341 443.856C268.795 443.856 269.187 443.755 269.517 443.552C269.848 443.349 270.157 443.064 270.445 442.696V438.84ZM272.013 433.192V445H271.069C270.851 445 270.715 444.896 270.661 444.688L270.525 443.752C270.179 444.163 269.784 444.493 269.341 444.744C268.904 444.989 268.397 445.112 267.821 445.112C267.357 445.112 266.936 445.021 266.557 444.84C266.184 444.659 265.864 444.395 265.597 444.048C265.331 443.696 265.125 443.261 264.981 442.744C264.837 442.227 264.765 441.632 264.765 440.96C264.765 440.357 264.845 439.797 265.005 439.28C265.165 438.763 265.397 438.315 265.701 437.936C266.005 437.557 266.373 437.261 266.805 437.048C267.237 436.829 267.725 436.72 268.269 436.72C268.76 436.72 269.176 436.8 269.517 436.96C269.864 437.12 270.173 437.347 270.445 437.64V433.192H272.013ZM274.894 445C274.75 445 274.616 444.973 274.494 444.92C274.376 444.867 274.272 444.795 274.182 444.704C274.096 444.608 274.03 444.496 273.982 444.368C273.934 444.24 273.91 444.101 273.91 443.952C273.91 443.824 273.934 443.704 273.982 443.592C274.03 443.475 274.096 443.373 274.182 443.288C274.272 443.203 274.379 443.136 274.502 443.088C274.624 443.035 274.76 443.008 274.91 443.008C275.08 443.008 275.23 443.04 275.358 443.104C275.491 443.163 275.6 443.248 275.686 443.36C275.776 443.467 275.843 443.592 275.886 443.736C275.928 443.88 275.95 444.035 275.95 444.2C275.95 444.44 275.915 444.693 275.846 444.96C275.776 445.227 275.675 445.491 275.542 445.752C275.408 446.013 275.243 446.267 275.046 446.512C274.848 446.757 274.624 446.984 274.374 447.192L274.11 446.944C274.03 446.869 273.99 446.787 273.99 446.696C273.99 446.659 274 446.619 274.022 446.576C274.048 446.539 274.08 446.501 274.118 446.464C274.171 446.405 274.24 446.328 274.326 446.232C274.411 446.136 274.494 446.024 274.574 445.896C274.659 445.773 274.736 445.635 274.806 445.48C274.88 445.331 274.934 445.171 274.966 445H274.894ZM90.4681 472.128C89.8121 472.128 89.3055 471.944 88.9481 471.576C88.5961 471.208 88.4201 470.683 88.4201 470V465.136H87.4761C87.3855 465.136 87.3081 465.109 87.2441 465.056C87.1855 464.997 87.1561 464.912 87.1561 464.8V464.168L88.4761 463.984L88.8281 461.56C88.8495 461.469 88.8895 461.4 88.9481 461.352C89.0121 461.299 89.0921 461.272 89.1881 461.272H89.9801V464H92.2841V465.136H89.9801V469.896C89.9801 470.216 90.0575 470.456 90.2121 470.616C90.3721 470.771 90.5748 470.848 90.8201 470.848C90.9641 470.848 91.0868 470.829 91.1881 470.792C91.2948 470.755 91.3855 470.715 91.4601 470.672C91.5348 470.624 91.5988 470.581 91.6521 470.544C91.7055 470.507 91.7535 470.488 91.7961 470.488C91.8495 470.488 91.8895 470.501 91.9161 470.528C91.9481 470.549 91.9801 470.587 92.0121 470.64L92.4761 471.392C92.2201 471.627 91.9161 471.808 91.5641 471.936C91.2121 472.064 90.8468 472.128 90.4681 472.128ZM95.281 464.904C95.6223 464.557 95.9983 464.277 96.409 464.064C96.825 463.851 97.3023 463.744 97.841 463.744C98.289 463.744 98.681 463.819 99.017 463.968C99.3583 464.117 99.6437 464.328 99.873 464.6C100.102 464.867 100.276 465.189 100.393 465.568C100.51 465.947 100.569 466.365 100.569 466.824V472H99.001V466.824C99.001 466.243 98.8677 465.792 98.601 465.472C98.3343 465.147 97.9263 464.984 97.377 464.984C96.977 464.984 96.601 465.08 96.249 465.272C95.9023 465.459 95.5797 465.715 95.281 466.04V472H93.721V460.192H95.281V464.904ZM108.058 467.032C108.058 466.723 108.013 466.437 107.922 466.176C107.837 465.915 107.709 465.688 107.538 465.496C107.367 465.304 107.159 465.155 106.914 465.048C106.669 464.941 106.386 464.888 106.066 464.888C105.41 464.888 104.893 465.077 104.514 465.456C104.141 465.835 103.903 466.36 103.802 467.032H108.058ZM109.346 470.84C109.154 471.064 108.933 471.259 108.682 471.424C108.431 471.584 108.165 471.715 107.882 471.816C107.599 471.917 107.306 471.992 107.002 472.04C106.703 472.088 106.407 472.112 106.114 472.112C105.554 472.112 105.034 472.019 104.554 471.832C104.079 471.64 103.666 471.363 103.314 471C102.967 470.632 102.695 470.179 102.498 469.64C102.306 469.096 102.21 468.472 102.21 467.768C102.21 467.203 102.298 466.677 102.474 466.192C102.65 465.701 102.901 465.275 103.226 464.912C103.557 464.549 103.959 464.264 104.434 464.056C104.909 463.848 105.442 463.744 106.034 463.744C106.53 463.744 106.986 463.827 107.402 463.992C107.823 464.152 108.186 464.387 108.49 464.696C108.794 465.005 109.031 465.387 109.202 465.84C109.378 466.293 109.466 466.811 109.466 467.392C109.466 467.632 109.439 467.795 109.386 467.88C109.333 467.96 109.234 468 109.09 468H103.762C103.778 468.485 103.847 468.909 103.97 469.272C104.093 469.629 104.261 469.928 104.474 470.168C104.693 470.408 104.951 470.587 105.25 470.704C105.549 470.821 105.882 470.88 106.25 470.88C106.597 470.88 106.895 470.84 107.146 470.76C107.402 470.68 107.621 470.595 107.802 470.504C107.989 470.408 108.143 470.32 108.266 470.24C108.394 470.16 108.506 470.12 108.602 470.12C108.73 470.12 108.829 470.168 108.898 470.264L109.346 470.84ZM122.894 472H121.326V465.136H117.246V469.896C117.246 470.216 117.323 470.456 117.478 470.616C117.638 470.771 117.84 470.848 118.086 470.848C118.23 470.848 118.352 470.829 118.454 470.792C118.56 470.755 118.651 470.715 118.726 470.672C118.8 470.624 118.864 470.581 118.918 470.544C118.971 470.507 119.019 470.488 119.062 470.488C119.115 470.488 119.155 470.501 119.182 470.528C119.214 470.549 119.246 470.587 119.278 470.64L119.742 471.392C119.486 471.627 119.182 471.808 118.83 471.936C118.478 472.064 118.112 472.128 117.734 472.128C117.078 472.128 116.571 471.944 116.214 471.576C115.862 471.208 115.686 470.683 115.686 470V465.136H114.742C114.651 465.136 114.574 465.109 114.51 465.056C114.451 464.997 114.422 464.912 114.422 464.8V464.168L115.75 463.984L116.094 461.56C116.115 461.469 116.155 461.4 116.214 461.352C116.278 461.299 116.358 461.272 116.454 461.272H117.246V464H122.894V472ZM123.246 461.312C123.246 461.456 123.216 461.595 123.158 461.728C123.099 461.856 123.019 461.971 122.918 462.072C122.822 462.168 122.707 462.245 122.574 462.304C122.44 462.357 122.302 462.384 122.158 462.384C122.014 462.384 121.878 462.357 121.75 462.304C121.622 462.245 121.507 462.168 121.406 462.072C121.31 461.971 121.232 461.856 121.174 461.728C121.12 461.595 121.094 461.456 121.094 461.312C121.094 461.163 121.12 461.021 121.174 460.888C121.232 460.755 121.31 460.64 121.406 460.544C121.507 460.443 121.622 460.365 121.75 460.312C121.878 460.253 122.014 460.224 122.158 460.224C122.302 460.224 122.44 460.253 122.574 460.312C122.707 460.365 122.822 460.443 122.918 460.544C123.019 460.64 123.099 460.755 123.158 460.888C123.216 461.021 123.246 461.163 123.246 461.312ZM125.159 472V463.872H126.095C126.313 463.872 126.449 463.976 126.503 464.184L126.615 464.96C126.913 464.603 127.244 464.312 127.607 464.088C127.975 463.859 128.404 463.744 128.895 463.744C129.433 463.744 129.871 463.893 130.207 464.192C130.543 464.485 130.788 464.885 130.943 465.392C131.06 465.104 131.212 464.856 131.399 464.648C131.585 464.44 131.793 464.269 132.023 464.136C132.252 464.003 132.495 463.904 132.751 463.84C133.012 463.776 133.276 463.744 133.543 463.744C133.975 463.744 134.359 463.813 134.695 463.952C135.036 464.085 135.324 464.283 135.559 464.544C135.793 464.805 135.972 465.128 136.095 465.512C136.217 465.896 136.279 466.333 136.279 466.824V472H134.711V466.824C134.711 466.216 134.577 465.757 134.311 465.448C134.049 465.139 133.665 464.984 133.159 464.984C132.935 464.984 132.721 465.024 132.519 465.104C132.316 465.179 132.137 465.293 131.983 465.448C131.833 465.603 131.713 465.795 131.623 466.024C131.537 466.253 131.495 466.52 131.495 466.824V472H129.927V466.824C129.927 466.195 129.801 465.731 129.551 465.432C129.3 465.133 128.932 464.984 128.447 464.984C128.111 464.984 127.799 465.072 127.511 465.248C127.223 465.424 126.959 465.664 126.719 465.968V472H125.159ZM143.761 467.032C143.761 466.723 143.716 466.437 143.625 466.176C143.54 465.915 143.412 465.688 143.241 465.496C143.071 465.304 142.863 465.155 142.617 465.048C142.372 464.941 142.089 464.888 141.769 464.888C141.113 464.888 140.596 465.077 140.217 465.456C139.844 465.835 139.607 466.36 139.505 467.032H143.761ZM145.049 470.84C144.857 471.064 144.636 471.259 144.385 471.424C144.135 471.584 143.868 471.715 143.585 471.816C143.303 471.917 143.009 471.992 142.705 472.04C142.407 472.088 142.111 472.112 141.817 472.112C141.257 472.112 140.737 472.019 140.257 471.832C139.783 471.64 139.369 471.363 139.017 471C138.671 470.632 138.399 470.179 138.201 469.64C138.009 469.096 137.913 468.472 137.913 467.768C137.913 467.203 138.001 466.677 138.177 466.192C138.353 465.701 138.604 465.275 138.929 464.912C139.26 464.549 139.663 464.264 140.137 464.056C140.612 463.848 141.145 463.744 141.737 463.744C142.233 463.744 142.689 463.827 143.105 463.992C143.527 464.152 143.889 464.387 144.193 464.696C144.497 465.005 144.735 465.387 144.905 465.84C145.081 466.293 145.169 466.811 145.169 467.392C145.169 467.632 145.143 467.795 145.089 467.88C145.036 467.96 144.937 468 144.793 468H139.465C139.481 468.485 139.551 468.909 139.673 469.272C139.796 469.629 139.964 469.928 140.177 470.168C140.396 470.408 140.655 470.587 140.953 470.704C141.252 470.821 141.585 470.88 141.953 470.88C142.3 470.88 142.599 470.84 142.849 470.76C143.105 470.68 143.324 470.595 143.505 470.504C143.692 470.408 143.847 470.32 143.969 470.24C144.097 470.16 144.209 470.12 144.305 470.12C144.433 470.12 144.532 470.168 144.601 470.264L145.049 470.84ZM161.869 463.872L159.253 472H158.005C157.855 472 157.754 471.901 157.701 471.704L155.989 466.408C155.946 466.275 155.909 466.144 155.877 466.016C155.845 465.883 155.815 465.749 155.789 465.616C155.741 465.893 155.674 466.163 155.589 466.424L153.853 471.704C153.799 471.901 153.685 472 153.509 472H152.325L149.701 463.872H150.933C151.055 463.872 151.157 463.901 151.237 463.96C151.322 464.019 151.378 464.093 151.405 464.184L152.869 469.176C152.917 469.379 152.959 469.576 152.997 469.768C153.034 469.96 153.069 470.152 153.101 470.344C153.149 470.152 153.199 469.96 153.253 469.768C153.311 469.576 153.37 469.379 153.429 469.176L155.053 464.152C155.079 464.061 155.13 463.989 155.205 463.936C155.279 463.877 155.37 463.848 155.477 463.848H156.157C156.274 463.848 156.37 463.877 156.445 463.936C156.525 463.989 156.578 464.061 156.605 464.152L158.189 469.176C158.247 469.379 158.303 469.579 158.357 469.776C158.41 469.968 158.458 470.163 158.501 470.36C158.533 470.168 158.57 469.976 158.613 469.784C158.655 469.587 158.703 469.384 158.757 469.176L160.245 464.184C160.271 464.093 160.325 464.019 160.405 463.96C160.49 463.901 160.586 463.872 160.693 463.872H161.869ZM164.822 463.872V472H163.262V463.872H164.822ZM165.118 461.36C165.118 461.504 165.088 461.643 165.03 461.776C164.971 461.904 164.891 462.019 164.79 462.12C164.694 462.216 164.579 462.293 164.446 462.352C164.312 462.405 164.174 462.432 164.03 462.432C163.886 462.432 163.75 462.405 163.622 462.352C163.494 462.293 163.379 462.216 163.278 462.12C163.182 462.019 163.104 461.904 163.046 461.776C162.992 461.643 162.966 461.504 162.966 461.36C162.966 461.211 162.992 461.072 163.046 460.944C163.104 460.811 163.182 460.696 163.278 460.6C163.379 460.499 163.494 460.421 163.622 460.368C163.75 460.309 163.886 460.28 164.03 460.28C164.174 460.28 164.312 460.309 164.446 460.368C164.579 460.421 164.694 460.499 164.79 460.6C164.891 460.696 164.971 460.811 165.03 460.944C165.088 461.072 165.118 461.211 165.118 461.36ZM168.68 460.192V472H167.112V460.192H168.68ZM172.509 460.192V472H170.941V460.192H172.509ZM180.344 470C180.6 470.336 180.877 470.571 181.176 470.704C181.474 470.837 181.8 470.904 182.152 470.904C182.877 470.904 183.434 470.645 183.824 470.128C184.218 469.611 184.416 468.829 184.416 467.784C184.416 466.819 184.242 466.112 183.896 465.664C183.549 465.211 183.058 464.984 182.424 464.984C181.976 464.984 181.586 465.085 181.256 465.288C180.93 465.491 180.626 465.779 180.344 466.152V470ZM180.344 464.992C180.68 464.619 181.061 464.317 181.488 464.088C181.914 463.859 182.4 463.744 182.944 463.744C183.418 463.744 183.845 463.837 184.224 464.024C184.608 464.205 184.933 464.469 185.2 464.816C185.466 465.157 185.672 465.573 185.816 466.064C185.96 466.555 186.032 467.109 186.032 467.728C186.032 468.384 185.949 468.981 185.784 469.52C185.624 470.059 185.392 470.52 185.088 470.904C184.789 471.288 184.424 471.587 183.992 471.8C183.56 472.008 183.074 472.112 182.536 472.112C182.274 472.112 182.034 472.085 181.816 472.032C181.597 471.984 181.394 471.912 181.208 471.816C181.026 471.72 180.858 471.603 180.704 471.464C180.549 471.325 180.402 471.168 180.264 470.992L180.192 471.672C180.149 471.891 180.016 472 179.792 472H178.784V460.192H180.344V464.992ZM193.152 467.032C193.152 466.723 193.107 466.437 193.016 466.176C192.931 465.915 192.803 465.688 192.632 465.496C192.461 465.304 192.253 465.155 192.008 465.048C191.763 464.941 191.48 464.888 191.16 464.888C190.504 464.888 189.987 465.077 189.608 465.456C189.235 465.835 188.997 466.36 188.896 467.032H193.152ZM194.44 470.84C194.248 471.064 194.027 471.259 193.776 471.424C193.525 471.584 193.259 471.715 192.976 471.816C192.693 471.917 192.4 471.992 192.096 472.04C191.797 472.088 191.501 472.112 191.208 472.112C190.648 472.112 190.128 472.019 189.648 471.832C189.173 471.64 188.76 471.363 188.408 471C188.061 470.632 187.789 470.179 187.592 469.64C187.4 469.096 187.304 468.472 187.304 467.768C187.304 467.203 187.392 466.677 187.568 466.192C187.744 465.701 187.995 465.275 188.32 464.912C188.651 464.549 189.053 464.264 189.528 464.056C190.003 463.848 190.536 463.744 191.128 463.744C191.624 463.744 192.08 463.827 192.496 463.992C192.917 464.152 193.28 464.387 193.584 464.696C193.888 465.005 194.125 465.387 194.296 465.84C194.472 466.293 194.56 466.811 194.56 467.392C194.56 467.632 194.533 467.795 194.48 467.88C194.427 467.96 194.328 468 194.184 468H188.856C188.872 468.485 188.941 468.909 189.064 469.272C189.187 469.629 189.355 469.928 189.568 470.168C189.787 470.408 190.045 470.587 190.344 470.704C190.643 470.821 190.976 470.88 191.344 470.88C191.691 470.88 191.989 470.84 192.24 470.76C192.496 470.68 192.715 470.595 192.896 470.504C193.083 470.408 193.237 470.32 193.36 470.24C193.488 470.16 193.6 470.12 193.696 470.12C193.824 470.12 193.923 470.168 193.992 470.264L194.44 470.84ZM205.98 465.392C205.932 465.451 205.884 465.499 205.836 465.536C205.793 465.568 205.729 465.584 205.644 465.584C205.558 465.584 205.468 465.552 205.372 465.488C205.281 465.419 205.164 465.347 205.02 465.272C204.881 465.192 204.71 465.12 204.508 465.056C204.31 464.987 204.065 464.952 203.772 464.952C203.388 464.952 203.049 465.021 202.756 465.16C202.462 465.299 202.217 465.496 202.02 465.752C201.828 466.008 201.681 466.32 201.58 466.688C201.478 467.056 201.428 467.469 201.428 467.928C201.428 468.403 201.481 468.827 201.588 469.2C201.694 469.568 201.846 469.88 202.044 470.136C202.241 470.387 202.481 470.579 202.764 470.712C203.046 470.84 203.361 470.904 203.707 470.904C204.044 470.904 204.321 470.864 204.54 470.784C204.758 470.699 204.94 470.608 205.084 470.512C205.228 470.416 205.348 470.328 205.444 470.248C205.54 470.163 205.638 470.12 205.74 470.12C205.868 470.12 205.966 470.168 206.036 470.264L206.484 470.84C206.297 471.069 206.086 471.264 205.852 471.424C205.622 471.584 205.377 471.715 205.116 471.816C204.854 471.917 204.58 471.992 204.292 472.04C204.009 472.088 203.721 472.112 203.428 472.112C202.921 472.112 202.446 472.019 202.004 471.832C201.566 471.645 201.185 471.373 200.86 471.016C200.54 470.659 200.286 470.221 200.1 469.704C199.913 469.181 199.82 468.589 199.82 467.928C199.82 467.325 199.902 466.768 200.068 466.256C200.238 465.744 200.486 465.304 200.812 464.936C201.142 464.563 201.548 464.272 202.028 464.064C202.508 463.851 203.057 463.744 203.676 463.744C204.257 463.744 204.769 463.837 205.212 464.024C205.654 464.211 206.049 464.475 206.396 464.816L205.98 465.392ZM211.263 463.744C211.86 463.744 212.399 463.843 212.879 464.04C213.364 464.232 213.775 464.512 214.111 464.88C214.452 465.243 214.714 465.683 214.895 466.2C215.076 466.712 215.167 467.288 215.167 467.928C215.167 468.568 215.076 469.147 214.895 469.664C214.714 470.181 214.452 470.621 214.111 470.984C213.775 471.347 213.364 471.627 212.879 471.824C212.399 472.016 211.86 472.112 211.263 472.112C210.66 472.112 210.116 472.016 209.631 471.824C209.151 471.627 208.74 471.347 208.399 470.984C208.058 470.621 207.794 470.181 207.607 469.664C207.426 469.147 207.335 468.568 207.335 467.928C207.335 467.288 207.426 466.712 207.607 466.2C207.794 465.683 208.058 465.243 208.399 464.88C208.74 464.512 209.151 464.232 209.631 464.04C210.116 463.843 210.66 463.744 211.263 463.744ZM211.263 470.896C212.031 470.896 212.604 470.637 212.983 470.12C213.362 469.603 213.551 468.875 213.551 467.936C213.551 466.997 213.362 466.269 212.983 465.752C212.604 465.229 212.031 464.968 211.263 464.968C210.484 464.968 209.903 465.229 209.519 465.752C209.14 466.269 208.951 466.997 208.951 467.936C208.951 468.875 209.14 469.603 209.519 470.12C209.903 470.637 210.484 470.896 211.263 470.896ZM223.669 463.872V472H222.733C222.519 472 222.381 471.896 222.317 471.688L222.205 470.872C222.029 471.059 221.845 471.229 221.653 471.384C221.461 471.539 221.255 471.672 221.037 471.784C220.818 471.891 220.586 471.973 220.341 472.032C220.095 472.096 219.831 472.128 219.549 472.128C219.101 472.128 218.706 472.053 218.365 471.904C218.029 471.755 217.746 471.547 217.517 471.28C217.287 471.008 217.114 470.683 216.997 470.304C216.879 469.925 216.821 469.507 216.821 469.048V463.872H218.389V469.048C218.389 469.629 218.522 470.083 218.789 470.408C219.055 470.728 219.463 470.888 220.013 470.888C220.413 470.888 220.786 470.795 221.133 470.608C221.479 470.416 221.805 470.155 222.109 469.824V463.872H223.669ZM227.31 465C227.486 464.813 227.67 464.643 227.862 464.488C228.054 464.333 228.257 464.203 228.47 464.096C228.689 463.984 228.921 463.899 229.166 463.84C229.417 463.776 229.683 463.744 229.966 463.744C230.414 463.744 230.806 463.819 231.142 463.968C231.483 464.117 231.769 464.328 231.998 464.6C232.227 464.867 232.401 465.189 232.518 465.568C232.635 465.947 232.694 466.365 232.694 466.824V472H231.126V466.824C231.126 466.243 230.993 465.792 230.726 465.472C230.459 465.147 230.051 464.984 229.502 464.984C229.102 464.984 228.726 465.08 228.374 465.272C228.027 465.459 227.705 465.715 227.406 466.04V472H225.846V463.872H226.782C227.001 463.872 227.137 463.976 227.19 464.184L227.31 465ZM237.234 472.128C236.578 472.128 236.071 471.944 235.714 471.576C235.362 471.208 235.186 470.683 235.186 470V465.136H234.242C234.151 465.136 234.074 465.109 234.01 465.056C233.951 464.997 233.922 464.912 233.922 464.8V464.168L235.242 463.984L235.594 461.56C235.615 461.469 235.655 461.4 235.714 461.352C235.778 461.299 235.858 461.272 235.954 461.272H236.746V464H239.05V465.136H236.746V469.896C236.746 470.216 236.823 470.456 236.978 470.616C237.138 470.771 237.34 470.848 237.586 470.848C237.73 470.848 237.852 470.829 237.954 470.792C238.06 470.755 238.151 470.715 238.226 470.672C238.3 470.624 238.364 470.581 238.418 470.544C238.471 470.507 238.519 470.488 238.562 470.488C238.615 470.488 238.655 470.501 238.682 470.528C238.714 470.549 238.746 470.587 238.778 470.64L239.242 471.392C238.986 471.627 238.682 471.808 238.33 471.936C237.978 472.064 237.612 472.128 237.234 472.128ZM245.824 467.032C245.824 466.723 245.778 466.437 245.688 466.176C245.602 465.915 245.474 465.688 245.304 465.496C245.133 465.304 244.925 465.155 244.68 465.048C244.434 464.941 244.152 464.888 243.832 464.888C243.176 464.888 242.658 465.077 242.28 465.456C241.906 465.835 241.669 466.36 241.568 467.032H245.824ZM247.112 470.84C246.92 471.064 246.698 471.259 246.448 471.424C246.197 471.584 245.93 471.715 245.648 471.816C245.365 471.917 245.072 471.992 244.768 472.04C244.469 472.088 244.173 472.112 243.88 472.112C243.32 472.112 242.8 472.019 242.32 471.832C241.845 471.64 241.432 471.363 241.08 471C240.733 470.632 240.461 470.179 240.264 469.64C240.072 469.096 239.976 468.472 239.976 467.768C239.976 467.203 240.064 466.677 240.24 466.192C240.416 465.701 240.666 465.275 240.992 464.912C241.322 464.549 241.725 464.264 242.2 464.056C242.674 463.848 243.208 463.744 243.8 463.744C244.296 463.744 244.752 463.827 245.168 463.992C245.589 464.152 245.952 464.387 246.256 464.696C246.56 465.005 246.797 465.387 246.968 465.84C247.144 466.293 247.232 466.811 247.232 467.392C247.232 467.632 247.205 467.795 247.152 467.88C247.098 467.96 247 468 246.856 468H241.528C241.544 468.485 241.613 468.909 241.736 469.272C241.858 469.629 242.026 469.928 242.24 470.168C242.458 470.408 242.717 470.587 243.016 470.704C243.314 470.821 243.648 470.88 244.016 470.88C244.362 470.88 244.661 470.84 244.912 470.76C245.168 470.68 245.386 470.595 245.568 470.504C245.754 470.408 245.909 470.32 246.032 470.24C246.16 470.16 246.272 470.12 246.368 470.12C246.496 470.12 246.594 470.168 246.664 470.264L247.112 470.84ZM254.149 465.84C253.893 465.504 253.615 465.269 253.317 465.136C253.023 465.003 252.693 464.936 252.325 464.936C251.61 464.936 251.055 465.195 250.661 465.712C250.271 466.224 250.077 466.973 250.077 467.96C250.077 468.477 250.119 468.92 250.205 469.288C250.295 469.651 250.423 469.949 250.589 470.184C250.759 470.413 250.967 470.584 251.213 470.696C251.458 470.803 251.735 470.856 252.045 470.856C252.498 470.856 252.89 470.755 253.221 470.552C253.551 470.349 253.861 470.064 254.149 469.696V465.84ZM255.717 460.192V472H254.773C254.554 472 254.418 471.896 254.365 471.688L254.229 470.752C253.882 471.163 253.487 471.493 253.045 471.744C252.607 471.989 252.101 472.112 251.525 472.112C251.061 472.112 250.639 472.021 250.261 471.84C249.887 471.659 249.567 471.395 249.301 471.048C249.034 470.696 248.829 470.261 248.685 469.744C248.541 469.227 248.469 468.632 248.469 467.96C248.469 467.357 248.549 466.797 248.709 466.28C248.869 465.763 249.101 465.315 249.405 464.936C249.709 464.557 250.077 464.261 250.509 464.048C250.941 463.829 251.429 463.72 251.973 463.72C252.463 463.72 252.879 463.8 253.221 463.96C253.567 464.12 253.877 464.347 254.149 464.64V460.192H255.717ZM267.18 465.84C266.924 465.504 266.646 465.269 266.348 465.136C266.054 465.003 265.724 464.936 265.356 464.936C264.641 464.936 264.086 465.195 263.692 465.712C263.302 466.224 263.108 466.973 263.108 467.96C263.108 468.477 263.15 468.92 263.236 469.288C263.326 469.651 263.454 469.949 263.62 470.184C263.79 470.413 263.998 470.584 264.244 470.696C264.489 470.803 264.766 470.856 265.076 470.856C265.529 470.856 265.921 470.755 266.252 470.552C266.582 470.349 266.892 470.064 267.18 469.696V465.84ZM268.748 460.192V472H267.804C267.585 472 267.449 471.896 267.396 471.688L267.26 470.752C266.913 471.163 266.518 471.493 266.076 471.744C265.638 471.989 265.132 472.112 264.556 472.112C264.092 472.112 263.67 472.021 263.292 471.84C262.918 471.659 262.598 471.395 262.332 471.048C262.065 470.696 261.86 470.261 261.716 469.744C261.572 469.227 261.5 468.632 261.5 467.96C261.5 467.357 261.58 466.797 261.74 466.28C261.9 465.763 262.132 465.315 262.436 464.936C262.74 464.557 263.108 464.261 263.54 464.048C263.972 463.829 264.46 463.72 265.004 463.72C265.494 463.72 265.91 463.8 266.252 463.96C266.598 464.12 266.908 464.347 267.18 464.64V460.192H268.748ZM274.388 463.744C274.985 463.744 275.524 463.843 276.004 464.04C276.489 464.232 276.9 464.512 277.236 464.88C277.577 465.243 277.839 465.683 278.02 466.2C278.201 466.712 278.292 467.288 278.292 467.928C278.292 468.568 278.201 469.147 278.02 469.664C277.839 470.181 277.577 470.621 277.236 470.984C276.9 471.347 276.489 471.627 276.004 471.824C275.524 472.016 274.985 472.112 274.388 472.112C273.785 472.112 273.241 472.016 272.756 471.824C272.276 471.627 271.865 471.347 271.524 470.984C271.183 470.621 270.919 470.181 270.732 469.664C270.551 469.147 270.46 468.568 270.46 467.928C270.46 467.288 270.551 466.712 270.732 466.2C270.919 465.683 271.183 465.243 271.524 464.88C271.865 464.512 272.276 464.232 272.756 464.04C273.241 463.843 273.785 463.744 274.388 463.744ZM274.388 470.896C275.156 470.896 275.729 470.637 276.108 470.12C276.487 469.603 276.676 468.875 276.676 467.936C276.676 466.997 276.487 466.269 276.108 465.752C275.729 465.229 275.156 464.968 274.388 464.968C273.609 464.968 273.028 465.229 272.644 465.752C272.265 466.269 272.076 466.997 272.076 467.936C272.076 468.875 272.265 469.603 272.644 470.12C273.028 470.637 273.609 470.896 274.388 470.896ZM291.213 463.872L288.597 472H287.349C287.199 472 287.098 471.901 287.045 471.704L285.333 466.408C285.29 466.275 285.253 466.144 285.221 466.016C285.189 465.883 285.159 465.749 285.133 465.616C285.085 465.893 285.018 466.163 284.933 466.424L283.197 471.704C283.143 471.901 283.029 472 282.852 472H281.669L279.045 463.872H280.277C280.399 463.872 280.501 463.901 280.581 463.96C280.666 464.019 280.722 464.093 280.749 464.184L282.213 469.176C282.261 469.379 282.303 469.576 282.341 469.768C282.378 469.96 282.413 470.152 282.445 470.344C282.493 470.152 282.543 469.96 282.597 469.768C282.655 469.576 282.714 469.379 282.773 469.176L284.397 464.152C284.423 464.061 284.474 463.989 284.549 463.936C284.623 463.877 284.714 463.848 284.821 463.848H285.501C285.618 463.848 285.714 463.877 285.789 463.936C285.869 463.989 285.922 464.061 285.949 464.152L287.533 469.176C287.591 469.379 287.647 469.579 287.701 469.776C287.754 469.968 287.802 470.163 287.845 470.36C287.877 470.168 287.914 469.976 287.957 469.784C287.999 469.587 288.047 469.384 288.101 469.176L289.589 464.184C289.615 464.093 289.669 464.019 289.749 463.96C289.834 463.901 289.93 463.872 290.037 463.872H291.213ZM293.998 465C294.174 464.813 294.358 464.643 294.55 464.488C294.742 464.333 294.944 464.203 295.158 464.096C295.376 463.984 295.608 463.899 295.854 463.84C296.104 463.776 296.371 463.744 296.654 463.744C297.102 463.744 297.494 463.819 297.83 463.968C298.171 464.117 298.456 464.328 298.686 464.6C298.915 464.867 299.088 465.189 299.206 465.568C299.323 465.947 299.382 466.365 299.382 466.824V472H297.814V466.824C297.814 466.243 297.68 465.792 297.414 465.472C297.147 465.147 296.739 464.984 296.19 464.984C295.79 464.984 295.414 465.08 295.062 465.272C294.715 465.459 294.392 465.715 294.094 466.04V472H292.534V463.872H293.47C293.688 463.872 293.824 463.976 293.878 464.184L293.998 465ZM301.231 471.064C301.231 470.92 301.257 470.784 301.311 470.656C301.364 470.528 301.436 470.416 301.527 470.32C301.623 470.224 301.735 470.149 301.863 470.096C301.991 470.037 302.129 470.008 302.279 470.008C302.423 470.008 302.559 470.037 302.687 470.096C302.815 470.149 302.927 470.224 303.023 470.32C303.119 470.416 303.193 470.528 303.247 470.656C303.305 470.784 303.335 470.92 303.335 471.064C303.335 471.213 303.305 471.352 303.247 471.48C303.193 471.608 303.119 471.72 303.023 471.816C302.927 471.912 302.815 471.987 302.687 472.04C302.559 472.093 302.423 472.12 302.279 472.12C302.129 472.12 301.991 472.093 301.863 472.04C301.735 471.987 301.623 471.912 301.527 471.816C301.436 471.72 301.364 471.608 301.311 471.48C301.257 471.352 301.231 471.213 301.231 471.064Z" fill="#E2E9FD"/>
<path d="M161.172 371.804C161.076 371.972 160.972 372.096 160.86 372.176C160.756 372.248 160.624 372.284 160.464 372.284C160.296 372.284 160.112 372.224 159.912 372.104C159.72 371.976 159.488 371.836 159.216 371.684C158.944 371.532 158.624 371.396 158.256 371.276C157.896 371.148 157.468 371.084 156.972 371.084C156.524 371.084 156.132 371.14 155.796 371.252C155.46 371.356 155.176 371.504 154.944 371.696C154.72 371.888 154.552 372.12 154.44 372.392C154.328 372.656 154.272 372.948 154.272 373.268C154.272 373.676 154.384 374.016 154.608 374.288C154.84 374.56 155.144 374.792 155.52 374.984C155.896 375.176 156.324 375.348 156.804 375.5C157.284 375.652 157.776 375.816 158.28 375.992C158.784 376.16 159.276 376.36 159.756 376.592C160.236 376.816 160.664 377.104 161.04 377.456C161.416 377.8 161.716 378.224 161.94 378.728C162.172 379.232 162.288 379.844 162.288 380.564C162.288 381.348 162.152 382.084 161.88 382.772C161.616 383.452 161.224 384.048 160.704 384.56C160.192 385.064 159.564 385.464 158.82 385.76C158.076 386.048 157.224 386.192 156.264 386.192C155.712 386.192 155.168 386.136 154.632 386.024C154.096 385.92 153.58 385.768 153.084 385.568C152.596 385.368 152.136 385.128 151.704 384.848C151.272 384.568 150.888 384.256 150.552 383.912L151.5 382.364C151.58 382.252 151.684 382.16 151.812 382.088C151.94 382.008 152.076 381.968 152.22 381.968C152.42 381.968 152.636 382.052 152.868 382.22C153.1 382.38 153.376 382.56 153.696 382.76C154.016 382.96 154.388 383.144 154.812 383.312C155.244 383.472 155.76 383.552 156.36 383.552C157.28 383.552 157.992 383.336 158.496 382.904C159 382.464 159.252 381.836 159.252 381.02C159.252 380.564 159.136 380.192 158.904 379.904C158.68 379.616 158.38 379.376 158.004 379.184C157.628 378.984 157.2 378.816 156.72 378.68C156.24 378.544 155.752 378.396 155.256 378.236C154.76 378.076 154.272 377.884 153.792 377.66C153.312 377.436 152.884 377.144 152.508 376.784C152.132 376.424 151.828 375.976 151.596 375.44C151.372 374.896 151.26 374.228 151.26 373.436C151.26 372.804 151.384 372.188 151.632 371.588C151.888 370.988 152.256 370.456 152.736 369.992C153.216 369.528 153.808 369.156 154.512 368.876C155.216 368.596 156.024 368.456 156.936 368.456C157.96 368.456 158.904 368.616 159.768 368.936C160.632 369.256 161.368 369.704 161.976 370.28L161.172 371.804ZM175.033 373.688V386H173.221C172.829 386 172.581 385.82 172.477 385.46L172.273 384.476C171.769 384.988 171.213 385.404 170.605 385.724C169.997 386.036 169.281 386.192 168.457 386.192C167.785 386.192 167.189 386.08 166.669 385.856C166.157 385.624 165.725 385.3 165.373 384.884C165.021 384.468 164.753 383.976 164.569 383.408C164.393 382.832 164.305 382.2 164.305 381.512V373.688H167.269V381.512C167.269 382.264 167.441 382.848 167.785 383.264C168.137 383.672 168.661 383.876 169.357 383.876C169.869 383.876 170.349 383.764 170.797 383.54C171.245 383.308 171.669 382.992 172.069 382.592V373.688H175.033ZM186.792 376.292C186.704 376.404 186.616 376.492 186.528 376.556C186.448 376.62 186.328 376.652 186.168 376.652C186.016 376.652 185.868 376.608 185.724 376.52C185.58 376.424 185.408 376.32 185.208 376.208C185.008 376.088 184.768 375.984 184.488 375.896C184.216 375.8 183.876 375.752 183.468 375.752C182.948 375.752 182.492 375.848 182.1 376.04C181.708 376.224 181.38 376.492 181.116 376.844C180.86 377.196 180.668 377.624 180.54 378.128C180.412 378.624 180.348 379.188 180.348 379.82C180.348 380.476 180.416 381.06 180.552 381.572C180.696 382.084 180.9 382.516 181.164 382.868C181.428 383.212 181.748 383.476 182.124 383.66C182.5 383.836 182.924 383.924 183.396 383.924C183.868 383.924 184.248 383.868 184.536 383.756C184.832 383.636 185.08 383.508 185.28 383.372C185.48 383.228 185.652 383.1 185.796 382.988C185.948 382.868 186.116 382.808 186.3 382.808C186.54 382.808 186.72 382.9 186.84 383.084L187.692 384.164C187.364 384.548 187.008 384.872 186.624 385.136C186.24 385.392 185.84 385.6 185.424 385.76C185.016 385.912 184.592 386.02 184.152 386.084C183.72 386.148 183.288 386.18 182.856 386.18C182.096 386.18 181.38 386.04 180.708 385.76C180.036 385.472 179.448 385.056 178.944 384.512C178.44 383.968 178.04 383.304 177.744 382.52C177.456 381.728 177.312 380.828 177.312 379.82C177.312 378.916 177.44 378.08 177.696 377.312C177.96 376.536 178.344 375.868 178.848 375.308C179.352 374.74 179.976 374.296 180.72 373.976C181.464 373.656 182.32 373.496 183.288 373.496C184.208 373.496 185.012 373.644 185.7 373.94C186.396 374.236 187.02 374.66 187.572 375.212L186.792 376.292ZM198.159 376.292C198.071 376.404 197.983 376.492 197.895 376.556C197.815 376.62 197.695 376.652 197.535 376.652C197.383 376.652 197.235 376.608 197.091 376.52C196.947 376.424 196.775 376.32 196.575 376.208C196.375 376.088 196.135 375.984 195.855 375.896C195.583 375.8 195.243 375.752 194.835 375.752C194.315 375.752 193.859 375.848 193.467 376.04C193.075 376.224 192.747 376.492 192.483 376.844C192.227 377.196 192.035 377.624 191.907 378.128C191.779 378.624 191.715 379.188 191.715 379.82C191.715 380.476 191.783 381.06 191.919 381.572C192.063 382.084 192.267 382.516 192.531 382.868C192.795 383.212 193.115 383.476 193.491 383.66C193.867 383.836 194.291 383.924 194.763 383.924C195.235 383.924 195.615 383.868 195.903 383.756C196.199 383.636 196.447 383.508 196.647 383.372C196.847 383.228 197.019 383.1 197.163 382.988C197.315 382.868 197.483 382.808 197.667 382.808C197.907 382.808 198.087 382.9 198.207 383.084L199.059 384.164C198.731 384.548 198.375 384.872 197.991 385.136C197.607 385.392 197.207 385.6 196.791 385.76C196.383 385.912 195.959 386.02 195.519 386.084C195.087 386.148 194.655 386.18 194.223 386.18C193.463 386.18 192.747 386.04 192.075 385.76C191.403 385.472 190.815 385.056 190.311 384.512C189.807 383.968 189.407 383.304 189.111 382.52C188.823 381.728 188.679 380.828 188.679 379.82C188.679 378.916 188.807 378.08 189.063 377.312C189.327 376.536 189.711 375.868 190.215 375.308C190.719 374.74 191.343 374.296 192.087 373.976C192.831 373.656 193.687 373.496 194.655 373.496C195.575 373.496 196.379 373.644 197.067 373.94C197.763 374.236 198.387 374.66 198.939 375.212L198.159 376.292ZM208.638 378.428C208.638 378.044 208.582 377.684 208.47 377.348C208.366 377.004 208.206 376.704 207.99 376.448C207.774 376.192 207.498 375.992 207.162 375.848C206.834 375.696 206.45 375.62 206.01 375.62C205.154 375.62 204.478 375.864 203.982 376.352C203.494 376.84 203.182 377.532 203.046 378.428H208.638ZM202.986 380.216C203.034 380.848 203.146 381.396 203.322 381.86C203.498 382.316 203.73 382.696 204.018 383C204.306 383.296 204.646 383.52 205.038 383.672C205.438 383.816 205.878 383.888 206.358 383.888C206.838 383.888 207.25 383.832 207.594 383.72C207.946 383.608 208.25 383.484 208.506 383.348C208.77 383.212 208.998 383.088 209.19 382.976C209.39 382.864 209.582 382.808 209.766 382.808C210.014 382.808 210.198 382.9 210.318 383.084L211.17 384.164C210.842 384.548 210.474 384.872 210.066 385.136C209.658 385.392 209.23 385.6 208.782 385.76C208.342 385.912 207.89 386.02 207.426 386.084C206.97 386.148 206.526 386.18 206.094 386.18C205.238 386.18 204.442 386.04 203.706 385.76C202.97 385.472 202.33 385.052 201.786 384.5C201.242 383.94 200.814 383.252 200.502 382.436C200.19 381.612 200.034 380.66 200.034 379.58C200.034 378.74 200.17 377.952 200.442 377.216C200.714 376.472 201.102 375.828 201.606 375.284C202.118 374.732 202.738 374.296 203.466 373.976C204.202 373.656 205.03 373.496 205.95 373.496C206.726 373.496 207.442 373.62 208.098 373.868C208.754 374.116 209.318 374.48 209.79 374.96C210.262 375.432 210.63 376.016 210.894 376.712C211.166 377.4 211.302 378.188 211.302 379.076C211.302 379.524 211.254 379.828 211.158 379.988C211.062 380.14 210.878 380.216 210.606 380.216H202.986ZM221.039 376.088C220.959 376.216 220.875 376.308 220.787 376.364C220.699 376.412 220.587 376.436 220.451 376.436C220.307 376.436 220.151 376.396 219.983 376.316C219.823 376.236 219.635 376.148 219.419 376.052C219.203 375.948 218.955 375.856 218.674 375.776C218.403 375.696 218.079 375.656 217.703 375.656C217.119 375.656 216.659 375.78 216.323 376.028C215.995 376.276 215.831 376.6 215.831 377C215.831 377.264 215.915 377.488 216.083 377.672C216.259 377.848 216.487 378.004 216.767 378.14C217.055 378.276 217.379 378.4 217.739 378.512C218.099 378.616 218.463 378.732 218.831 378.86C219.207 378.988 219.575 379.136 219.935 379.304C220.295 379.464 220.615 379.672 220.895 379.928C221.183 380.176 221.411 380.476 221.579 380.828C221.755 381.18 221.843 381.604 221.843 382.1C221.843 382.692 221.735 383.24 221.519 383.744C221.311 384.24 220.999 384.672 220.583 385.04C220.167 385.4 219.651 385.684 219.035 385.892C218.427 386.092 217.723 386.192 216.923 386.192C216.499 386.192 216.083 386.152 215.675 386.072C215.275 386 214.887 385.896 214.511 385.76C214.143 385.624 213.799 385.464 213.479 385.28C213.167 385.096 212.891 384.896 212.651 384.68L213.335 383.552C213.423 383.416 213.527 383.312 213.646 383.24C213.766 383.168 213.919 383.132 214.103 383.132C214.287 383.132 214.459 383.184 214.619 383.288C214.787 383.392 214.979 383.504 215.195 383.624C215.411 383.744 215.663 383.856 215.951 383.96C216.247 384.064 216.619 384.116 217.067 384.116C217.419 384.116 217.719 384.076 217.967 383.996C218.223 383.908 218.431 383.796 218.591 383.66C218.759 383.524 218.878 383.368 218.951 383.192C219.031 383.008 219.071 382.82 219.071 382.628C219.071 382.34 218.983 382.104 218.807 381.92C218.639 381.736 218.411 381.576 218.122 381.44C217.843 381.304 217.519 381.184 217.151 381.08C216.791 380.968 216.419 380.848 216.035 380.72C215.659 380.592 215.287 380.444 214.919 380.276C214.559 380.1 214.235 379.88 213.947 379.616C213.667 379.352 213.439 379.028 213.263 378.644C213.095 378.26 213.011 377.796 213.011 377.252C213.011 376.748 213.111 376.268 213.311 375.812C213.511 375.356 213.803 374.96 214.187 374.624C214.579 374.28 215.063 374.008 215.639 373.808C216.223 373.6 216.895 373.496 217.655 373.496C218.503 373.496 219.275 373.636 219.971 373.916C220.667 374.196 221.247 374.564 221.711 375.02L221.039 376.088ZM231.585 376.088C231.505 376.216 231.421 376.308 231.333 376.364C231.245 376.412 231.133 376.436 230.997 376.436C230.853 376.436 230.697 376.396 230.529 376.316C230.369 376.236 230.181 376.148 229.965 376.052C229.749 375.948 229.501 375.856 229.221 375.776C228.949 375.696 228.625 375.656 228.249 375.656C227.665 375.656 227.205 375.78 226.869 376.028C226.541 376.276 226.377 376.6 226.377 377C226.377 377.264 226.461 377.488 226.629 377.672C226.805 377.848 227.033 378.004 227.313 378.14C227.601 378.276 227.925 378.4 228.285 378.512C228.645 378.616 229.009 378.732 229.377 378.86C229.753 378.988 230.121 379.136 230.481 379.304C230.841 379.464 231.161 379.672 231.441 379.928C231.729 380.176 231.957 380.476 232.125 380.828C232.301 381.18 232.389 381.604 232.389 382.1C232.389 382.692 232.281 383.24 232.065 383.744C231.857 384.24 231.545 384.672 231.129 385.04C230.713 385.4 230.197 385.684 229.581 385.892C228.973 386.092 228.269 386.192 227.469 386.192C227.045 386.192 226.629 386.152 226.221 386.072C225.821 386 225.433 385.896 225.057 385.76C224.689 385.624 224.345 385.464 224.025 385.28C223.713 385.096 223.437 384.896 223.197 384.68L223.881 383.552C223.969 383.416 224.073 383.312 224.193 383.24C224.313 383.168 224.465 383.132 224.649 383.132C224.833 383.132 225.005 383.184 225.165 383.288C225.333 383.392 225.525 383.504 225.741 383.624C225.957 383.744 226.209 383.856 226.497 383.96C226.793 384.064 227.165 384.116 227.613 384.116C227.965 384.116 228.265 384.076 228.513 383.996C228.769 383.908 228.977 383.796 229.137 383.66C229.305 383.524 229.425 383.368 229.497 383.192C229.577 383.008 229.617 382.82 229.617 382.628C229.617 382.34 229.529 382.104 229.353 381.92C229.185 381.736 228.957 381.576 228.669 381.44C228.389 381.304 228.065 381.184 227.697 381.08C227.337 380.968 226.965 380.848 226.581 380.72C226.205 380.592 225.833 380.444 225.465 380.276C225.105 380.1 224.781 379.88 224.493 379.616C224.213 379.352 223.985 379.028 223.809 378.644C223.641 378.26 223.557 377.796 223.557 377.252C223.557 376.748 223.657 376.268 223.857 375.812C224.057 375.356 224.349 374.96 224.733 374.624C225.125 374.28 225.609 374.008 226.185 373.808C226.769 373.6 227.441 373.496 228.201 373.496C229.049 373.496 229.821 373.636 230.517 373.916C231.213 374.196 231.793 374.564 232.257 375.02L231.585 376.088ZM237.932 368.648V375.512C237.932 376.24 237.896 376.956 237.824 377.66C237.752 378.356 237.66 379.096 237.548 379.88H235.532C235.42 379.096 235.328 378.356 235.256 377.66C235.184 376.956 235.148 376.24 235.148 375.512V368.648H237.932ZM234.68 384.368C234.68 384.12 234.724 383.884 234.812 383.66C234.908 383.436 235.036 383.244 235.196 383.084C235.364 382.924 235.56 382.796 235.784 382.7C236.008 382.604 236.248 382.556 236.504 382.556C236.752 382.556 236.988 382.604 237.212 382.7C237.436 382.796 237.628 382.924 237.788 383.084C237.956 383.244 238.088 383.436 238.184 383.66C238.28 383.884 238.328 384.12 238.328 384.368C238.328 384.624 238.28 384.864 238.184 385.088C238.088 385.304 237.956 385.492 237.788 385.652C237.628 385.812 237.436 385.936 237.212 386.024C236.988 386.12 236.752 386.168 236.504 386.168C236.248 386.168 236.008 386.12 235.784 386.024C235.56 385.936 235.364 385.812 235.196 385.652C235.036 385.492 234.908 385.304 234.812 385.088C234.724 384.864 234.68 384.624 234.68 384.368Z" fill="white"/>
<path d="M195 339C222.614 339 245 316.614 245 289C245 261.386 222.614 239 195 239C167.386 239 145 261.386 145 289C145 316.614 167.386 339 195 339Z" fill="white"/>
<g clip-path="url(#clip1_237_1548)">
<path d="M190.833 295.608L209.983 276.456L212.931 279.402L190.833 301.5L177.575 288.242L180.521 285.296L190.833 295.608Z" fill="#567DF4"/>
</g>
</g>
<defs>
<clipPath id="clip0_237_1548">
<rect width="375" height="812" fill="white"/>
</clipPath>
<clipPath id="clip1_237_1548">
<rect width="50" height="50" fill="white" transform="translate(170 264)"/>
</clipPath>
</defs>
</svg>
