<svg xmlns="http://www.w3.org/2000/svg" xmlns:xlink="http://www.w3.org/1999/xlink" viewBox="0 0 408.9912 559.482">
  <defs>
    <style>
      .cls-1 {
        fill: url(#linear-gradient);
      }

      .cls-2 {
        fill: url(#linear-gradient-2);
      }

      .cls-3 {
        fill: url(#linear-gradient-3);
      }

      .cls-4 {
        fill: url(#linear-gradient-4);
      }
    </style>
    <linearGradient id="linear-gradient" x1="438.9592" y1="498.5638" x2="716.4453" y2="825.5475" gradientUnits="userSpaceOnUse">
      <stop offset="0" stop-color="#1e90ff"/>
      <stop offset="1" stop-color="#0f52ba"/>
    </linearGradient>
    <linearGradient id="linear-gradient-2" x1="552.2743" y1="402.4019" x2="829.7604" y2="729.3856" xlink:href="#linear-gradient"/>
    <linearGradient id="linear-gradient-3" x1="129.8139" y1="32.0274" x2="407.3" y2="359.011" xlink:href="#linear-gradient"/>
    <linearGradient id="linear-gradient-4" x1="403.2015" y1="732.3021" x2="733.1707" y2="920.8188" gradientUnits="userSpaceOnUse">
      <stop offset="0" stop-color="#1e90ff"/>
      <stop offset="0.0778" stop-color="#1d8bfa"/>
      <stop offset="1" stop-color="#0f52ba"/>
    </linearGradient>
  </defs>
  <title>path_text</title>
  <g id="Only_Path" data-name="Only Path">
    <g>
      <path class="cls-1" d="M503.6365,744.53c4.244,3.2061,8.8508,4.8991,13.518,6.4,17.4331,5.6066,35.4514,8.2512,53.5694,10.2463a715.2858,715.2858,0,0,0,107.2,3.3841c30.6109-1.2321,61.1214-3.5688,90.9984-10.9436,7.8676-1.942,15.6813-4.1635,22.8428-8.9875a27.29,27.29,0,0,0-8.7509-4.7825c-14.4316-5.5605-29.5691-8.0944-44.7691-10.3012-13.8479-2.0106-27.7781-3.25-41.74-4.1571-3.2242-.2095-3.9635-1.75-2.2053-4.5149,1.9675-3.0944,4.067-6.1048,6.0362-9.1981a3.5775,3.5775,0,0,1,3.64-1.98c25.9454,2.204,51.8251,4.8333,76.9186,12.3111,7.04,2.0978,13.894,4.7147,19.86,9.1748,10.5473,7.8851,10.5018,18.9723-.19,26.7713-8.4113,6.1355-18.2354,8.9822-28.139,11.4334-24.6835,6.1091-49.8757,8.7077-75.1765,10.3392a767.6682,767.6682,0,0,1-85.6369.7143c-29.8037-1.4064-59.4791-3.9687-88.5794-11.03-8.3547-2.0272-16.55-4.57-24.1226-8.7856a31.3005,31.3005,0,0,1-7.663-5.7658c-5.9015-6.2456-5.9341-14.42-.0283-20.6584,4.3625-4.6081,9.9264-7.307,15.7273-9.5513,15.0709-5.8306,30.8912-8.4942,46.7612-10.8982,12.1338-1.8381,24.3605-2.86,36.5727-4.01,2.3178-.2183,3.8973.3088,5.1259,2.4153,1.73,2.9658,3.7766,5.7445,5.62,8.6461,1.851,2.913,1.0787,4.38-2.4212,4.6089a494.1546,494.1546,0,0,0-54.6371,6.2217c-11.1717,1.993-22.252,4.3746-32.8121,8.6892A27.3914,27.3914,0,0,0,503.6365,744.53Z" transform="translate(-444.707 -351.4956)"/>
      <path class="cls-2" d="M783.9028,468.1479a138.3638,138.3638,0,0,0-137.2655-116.63,107.2652,107.2652,0,0,0-20.581,1.6666c-43.0909,7.62-76.22,30.1155-97.9349,68.06-18.1224,31.6671-23.5728,65.4086-12.3462,101.0063,7.053,22.3641,16.5354,43.6746,27.1315,64.52,26.48,52.0951,57.7783,101.2778,90.6488,149.5014,7.64,11.2091,20.6545,11.1519,28.3316-.0744,25.5614-37.3789,49.9888-75.4738,72.164-114.9744,16.3288-29.0864,31.5784-58.6888,42.7292-90.2423C783.9968,510.56,787.3927,489.8417,783.9028,468.1479ZM652.3262,526.9041a51.0248,51.0248,0,0,1-22.5318-5.1949v64.8971a14.2821,14.2821,0,0,1-28.5642,0V478.9643a2.9743,2.9743,0,0,1,.06-.5857c-.0368-.7993-.06-1.6022-.06-2.4108a51.0072,51.0072,0,1,1,51.096,50.9364Z" transform="translate(-444.707 -351.4956)"/>
      <circle class="cls-3" cx="208.203" cy="124.3994" r="23.1156"/>
    </g>
  </g>
  <g id="TEXT">
    <g>
      <g>
        <path d="M452.6367,910.7295a7.7052,7.7052,0,0,1-5.8857-2.168,8.41,8.41,0,0,1-2.0439-6.01v-72.11q0-3.9624,2.106-6.0088a8.1838,8.1838,0,0,1,5.9473-2.0439h29.86q14.3716,0,22.1782,7.1855,7.8054,7.188,7.8057,20.0723,0,12.8877-7.8057,20.1338-7.8062,7.248-22.1782,7.248H460.5659v25.5234a8.5784,8.5784,0,0,1-1.9824,6.01Q456.6,910.728,452.6367,910.7295Zm7.9292-46.2148h19.5767q8.4243,0,12.7617-3.7793,4.3352-3.7778,4.3364-11.0889t-4.3364-11.0273q-4.3389-3.7163-12.7617-3.7168H460.5659Z" transform="translate(-444.707 -351.4956)"/>
        <path d="M517.312,910.7295a7.694,7.694,0,0,1-4.77-1.3633,5.5132,5.5132,0,0,1-2.1685-3.6543,9.22,9.22,0,0,1,.8672-5.1426l32.71-72.4814a11.8235,11.8235,0,0,1,3.9028-5.1416,9.1828,9.1828,0,0,1,5.2656-1.5488,8.9832,8.9832,0,0,1,5.1421,1.5488,11.8565,11.8565,0,0,1,3.9028,5.1416l32.8335,72.4814a8.8664,8.8664,0,0,1,.9912,5.2041,5.4231,5.4231,0,0,1-2.1064,3.6553,7.4566,7.4566,0,0,1-4.584,1.3008,7.9411,7.9411,0,0,1-5.39-1.6729,14.0545,14.0545,0,0,1-3.4072-5.1416l-8.0537-18.709,6.69,4.3369H526.8521l6.6909-4.3369-7.93,18.709a16.1491,16.1491,0,0,1-3.3452,5.2041A7.0288,7.0288,0,0,1,517.312,910.7295Zm35.56-71.1191-17.3462,41.2588-3.2217-3.9648h41.3828l-3.0972,3.9648-17.47-41.2588Z" transform="translate(-444.707 -351.4956)"/>
        <path d="M616.5552,910.7295a7.7052,7.7052,0,0,1-5.8857-2.168,8.41,8.41,0,0,1-2.0439-6.01v-72.11q0-3.9624,2.106-6.0088a8.1838,8.1838,0,0,1,5.9473-2.0439H646.54q14.3694,0,22.1772,6.876,7.8047,6.8774,7.8047,19.2666a26.24,26.24,0,0,1-3.5312,13.877,22.7574,22.7574,0,0,1-10.2207,8.9209,38.4417,38.4417,0,0,1-16.23,3.0977l1.1152-1.8584h4.0874a15.7977,15.7977,0,0,1,8.8594,2.4775,20.8051,20.8051,0,0,1,6.6289,7.8057l9.291,17.2227a9.2445,9.2445,0,0,1,1.3633,5.08,5.5413,5.5413,0,0,1-1.8574,4.0264,7.405,7.405,0,0,1-5.08,1.5488,9.5518,9.5518,0,0,1-5.4512-1.4248,12.1109,12.1109,0,0,1-3.7187-4.3984L649.2637,881.86q-2.2288-4.21-5.2651-5.6367a18.2835,18.2835,0,0,0-7.7441-1.4258h-11.77v27.7539a8.5784,8.5784,0,0,1-1.9824,6.01Q620.519,910.728,616.5552,910.7295Zm7.93-47.7021H643.813q8.5481,0,12.9468-3.53t4.3984-10.5937q0-6.9375-4.3984-10.47t-12.9468-3.5312H624.4849Z" transform="translate(-444.707 -351.4956)"/>
        <path d="M701.5488,910.7295a7.7029,7.7029,0,0,1-5.8848-2.168,8.408,8.408,0,0,1-2.0449-6.01V829.4512q0-3.9639,2.0449-6.01a9.4949,9.4949,0,0,1,11.7705,0q2.0435,2.0449,2.0439,6.01v31.5938h.248l35.56-35.6826a15.5591,15.5591,0,0,1,3.9648-2.9736,9.8345,9.8345,0,0,1,4.46-.9912q3.5933,0,5.1426,1.8584a5.45,5.45,0,0,1,1.2383,4.3359,7.8208,7.8208,0,0,1-2.416,4.585l-36.1787,35.8066.124-7.1855,37.79,38.4092a7.722,7.722,0,0,1,2.7256,5.2031,5.7446,5.7446,0,0,1-1.6729,4.5225,7.1453,7.1453,0,0,1-5.2656,1.7969,8.2593,8.2593,0,0,1-4.7705-1.2393,30.9258,30.9258,0,0,1-4.15-3.5928l-36.5508-36.5508h-.248v33.2051a8.5784,8.5784,0,0,1-1.9824,6.01Q705.5127,910.728,701.5488,910.7295Z" transform="translate(-444.707 -351.4956)"/>
        <path d="M811.6963,910.9775q-12.6387,0-22.1162-5.5762a37.8849,37.8849,0,0,1-14.6826-15.6729q-5.2046-10.0972-5.2041-23.7275a54.3021,54.3021,0,0,1,2.9736-18.5225,40.4556,40.4556,0,0,1,8.4873-14.125,37.1523,37.1523,0,0,1,13.2578-9.0449,45.3526,45.3526,0,0,1,17.2842-3.1592q12.7588,0,22.1777,5.5137a37.7031,37.7031,0,0,1,14.62,15.55q5.2046,10.0356,5.2041,23.665a54.8231,54.8231,0,0,1-2.9736,18.585,41.0229,41.0229,0,0,1-8.4873,14.248,36.7768,36.7768,0,0,1-13.2568,9.1064A45.3739,45.3739,0,0,1,811.6963,910.9775Zm0-13.6289a24.32,24.32,0,0,0,13.69-3.7178,23.6946,23.6946,0,0,0,8.6729-10.7793,42.5048,42.5048,0,0,0,3.0361-16.8506q0-14.8682-6.6289-23.0449t-18.7705-8.1777a24.7146,24.7146,0,0,0-13.63,3.6553,23.2007,23.2007,0,0,0-8.7344,10.6553,42.3736,42.3736,0,0,0-3.0361,16.9121q0,14.7466,6.6914,23.0459Q799.6772,897.35,811.6963,897.3486Z" transform="translate(-444.707 -351.4956)"/>
      </g>
      <g>
        <path class="cls-4" d="M452.6367,910.7295a7.7052,7.7052,0,0,1-5.8857-2.168,8.41,8.41,0,0,1-2.0439-6.01v-72.11q0-3.9624,2.106-6.0088a8.1838,8.1838,0,0,1,5.9473-2.0439h29.86q14.3716,0,22.1782,7.1855,7.8054,7.188,7.8057,20.0723,0,12.8877-7.8057,20.1338-7.8062,7.248-22.1782,7.248H460.5659v25.5234a8.5784,8.5784,0,0,1-1.9824,6.01Q456.6,910.728,452.6367,910.7295Zm7.9292-46.2148h19.5767q8.4243,0,12.7617-3.7793,4.3352-3.7778,4.3364-11.0889t-4.3364-11.0273q-4.3389-3.7163-12.7617-3.7168H460.5659Z" transform="translate(-444.707 -351.4956)"/>
        <path class="cls-4" d="M517.312,910.7295a7.694,7.694,0,0,1-4.77-1.3633,5.5132,5.5132,0,0,1-2.1685-3.6543,9.22,9.22,0,0,1,.8672-5.1426l32.71-72.4814a11.8235,11.8235,0,0,1,3.9028-5.1416,9.1828,9.1828,0,0,1,5.2656-1.5488,8.9832,8.9832,0,0,1,5.1421,1.5488,11.8565,11.8565,0,0,1,3.9028,5.1416l32.8335,72.4814a8.8664,8.8664,0,0,1,.9912,5.2041,5.4231,5.4231,0,0,1-2.1064,3.6553,7.4566,7.4566,0,0,1-4.584,1.3008,7.9411,7.9411,0,0,1-5.39-1.6729,14.0545,14.0545,0,0,1-3.4072-5.1416l-8.0537-18.709,6.69,4.3369H526.8521l6.6909-4.3369-7.93,18.709a16.1491,16.1491,0,0,1-3.3452,5.2041A7.0288,7.0288,0,0,1,517.312,910.7295Zm35.56-71.1191-17.3462,41.2588-3.2217-3.9648h41.3828l-3.0972,3.9648-17.47-41.2588Z" transform="translate(-444.707 -351.4956)"/>
        <path class="cls-4" d="M616.5552,910.7295a7.7052,7.7052,0,0,1-5.8857-2.168,8.41,8.41,0,0,1-2.0439-6.01v-72.11q0-3.9624,2.106-6.0088a8.1838,8.1838,0,0,1,5.9473-2.0439H646.54q14.3694,0,22.1772,6.876,7.8047,6.8774,7.8047,19.2666a26.24,26.24,0,0,1-3.5312,13.877,22.7574,22.7574,0,0,1-10.2207,8.9209,38.4417,38.4417,0,0,1-16.23,3.0977l1.1152-1.8584h4.0874a15.7977,15.7977,0,0,1,8.8594,2.4775,20.8051,20.8051,0,0,1,6.6289,7.8057l9.291,17.2227a9.2445,9.2445,0,0,1,1.3633,5.08,5.5413,5.5413,0,0,1-1.8574,4.0264,7.405,7.405,0,0,1-5.08,1.5488,9.5518,9.5518,0,0,1-5.4512-1.4248,12.1109,12.1109,0,0,1-3.7187-4.3984L649.2637,881.86q-2.2288-4.21-5.2651-5.6367a18.2835,18.2835,0,0,0-7.7441-1.4258h-11.77v27.7539a8.5784,8.5784,0,0,1-1.9824,6.01Q620.519,910.728,616.5552,910.7295Zm7.93-47.7021H643.813q8.5481,0,12.9468-3.53t4.3984-10.5937q0-6.9375-4.3984-10.47t-12.9468-3.5312H624.4849Z" transform="translate(-444.707 -351.4956)"/>
        <path class="cls-4" d="M701.5488,910.7295a7.7029,7.7029,0,0,1-5.8848-2.168,8.408,8.408,0,0,1-2.0449-6.01V829.4512q0-3.9639,2.0449-6.01a9.4949,9.4949,0,0,1,11.7705,0q2.0435,2.0449,2.0439,6.01v31.5938h.248l35.56-35.6826a15.5591,15.5591,0,0,1,3.9648-2.9736,9.8345,9.8345,0,0,1,4.46-.9912q3.5933,0,5.1426,1.8584a5.45,5.45,0,0,1,1.2383,4.3359,7.8208,7.8208,0,0,1-2.416,4.585l-36.1787,35.8066.124-7.1855,37.79,38.4092a7.722,7.722,0,0,1,2.7256,5.2031,5.7446,5.7446,0,0,1-1.6729,4.5225,7.1453,7.1453,0,0,1-5.2656,1.7969,8.2593,8.2593,0,0,1-4.7705-1.2393,30.9258,30.9258,0,0,1-4.15-3.5928l-36.5508-36.5508h-.248v33.2051a8.5784,8.5784,0,0,1-1.9824,6.01Q705.5127,910.728,701.5488,910.7295Z" transform="translate(-444.707 -351.4956)"/>
        <path class="cls-4" d="M811.6963,910.9775q-12.6387,0-22.1162-5.5762a37.8849,37.8849,0,0,1-14.6826-15.6729q-5.2046-10.0972-5.2041-23.7275a54.3021,54.3021,0,0,1,2.9736-18.5225,40.4556,40.4556,0,0,1,8.4873-14.125,37.1523,37.1523,0,0,1,13.2578-9.0449,45.3526,45.3526,0,0,1,17.2842-3.1592q12.7588,0,22.1777,5.5137a37.7031,37.7031,0,0,1,14.62,15.55q5.2046,10.0356,5.2041,23.665a54.8231,54.8231,0,0,1-2.9736,18.585,41.0229,41.0229,0,0,1-8.4873,14.248,36.7768,36.7768,0,0,1-13.2568,9.1064A45.3739,45.3739,0,0,1,811.6963,910.9775Zm0-13.6289a24.32,24.32,0,0,0,13.69-3.7178,23.6946,23.6946,0,0,0,8.6729-10.7793,42.5048,42.5048,0,0,0,3.0361-16.8506q0-14.8682-6.6289-23.0449t-18.7705-8.1777a24.7146,24.7146,0,0,0-13.63,3.6553,23.2007,23.2007,0,0,0-8.7344,10.6553,42.3736,42.3736,0,0,0-3.0361,16.9121q0,14.7466,6.6914,23.0459Q799.6772,897.35,811.6963,897.3486Z" transform="translate(-444.707 -351.4956)"/>
      </g>
    </g>
  </g>
</svg>
