<svg id="White" xmlns="http://www.w3.org/2000/svg" viewBox="0 0 321.8192 429.8078">
  <defs>
    <style>
      .cls-1 {
        fill: #fff;
      }
    </style>
  </defs>
  <title>path_white</title>
  <g>
    <path class="cls-1" d="M503.6364,744.53c4.244,3.2061,8.8508,4.8991,13.518,6.4,17.4331,5.6066,35.4514,8.2512,53.5694,10.2463a715.2858,715.2858,0,0,0,107.2,3.3841c30.6109-1.2321,61.1214-3.5688,90.9984-10.9436,7.8676-1.942,15.6813-4.1635,22.8428-8.9875a27.29,27.29,0,0,0-8.7509-4.7825c-14.4316-5.5605-29.5691-8.0944-44.7691-10.3012-13.8479-2.0106-27.7781-3.25-41.74-4.1571-3.2242-.2095-3.9635-1.75-2.2053-4.5149,1.9675-3.0944,4.067-6.1048,6.0362-9.1981a3.5775,3.5775,0,0,1,3.64-1.98c25.9454,2.204,51.8251,4.8333,76.9186,12.3111,7.04,2.0978,13.894,4.7147,19.86,9.1748,10.5473,7.8851,10.5018,18.9723-.19,26.7713-8.4113,6.1355-18.2354,8.9822-28.139,11.4334-24.6835,6.1091-49.8757,8.7077-75.1765,10.3392a767.6682,767.6682,0,0,1-85.6369.7143c-29.8037-1.4064-59.4791-3.9687-88.5794-11.03-8.3547-2.0272-16.55-4.57-24.1226-8.7856a31.3005,31.3005,0,0,1-7.663-5.7658c-5.9015-6.2456-5.9341-14.42-.0283-20.6584,4.3625-4.6081,9.9264-7.307,15.7273-9.5513,15.0709-5.8306,30.8912-8.4942,46.7612-10.8982,12.1338-1.8381,24.3605-2.86,36.5727-4.01,2.3178-.2183,3.8973.3088,5.1259,2.4153,1.73,2.9658,3.7766,5.7445,5.62,8.6461,1.851,2.913,1.0787,4.38-2.4212,4.6089a494.1546,494.1546,0,0,0-54.6371,6.2217c-11.1717,1.993-22.252,4.3746-32.8121,8.6892A27.3914,27.3914,0,0,0,503.6364,744.53Z" transform="translate(-486.8054 -351.4956)"/>
    <path class="cls-1" d="M783.9027,468.1479a138.3638,138.3638,0,0,0-137.2655-116.63,107.2652,107.2652,0,0,0-20.581,1.6666c-43.0909,7.62-76.22,30.1155-97.9349,68.06-18.1224,31.6671-23.5728,65.4086-12.3462,101.0063,7.053,22.3641,16.5354,43.6746,27.1315,64.52,26.48,52.0951,57.7783,101.2778,90.6488,149.5014,7.64,11.2091,20.6545,11.1519,28.3316-.0744,25.5614-37.3789,49.9888-75.4738,72.164-114.9744,16.3288-29.0864,31.5784-58.6888,42.7292-90.2423C783.9967,510.56,787.3926,489.8417,783.9027,468.1479ZM652.3261,526.9041a51.0248,51.0248,0,0,1-22.5318-5.1949v64.8971a14.2821,14.2821,0,0,1-28.5642,0V478.9643a2.9743,2.9743,0,0,1,.06-.5857c-.0368-.7993-.06-1.6022-.06-2.4108a51.0072,51.0072,0,1,1,51.096,50.9364Z" transform="translate(-486.8054 -351.4956)"/>
    <circle class="cls-1" cx="166.1044" cy="124.3994" r="23.1156"/>
  </g>
</svg>
